<svg width="32" height="32" viewBox="0 0 32 32" fill="none" xmlns="http://www.w3.org/2000/svg" >
<g clip-path="url(#clip0)">
<path d="M31.1604 24.6873L24.6834 20.3679C23.8615 19.8242 22.7597 20.0031 22.1521 20.779L20.2654 23.2048C20.0229 23.5245 19.5822 23.6172 19.2314 23.4224L18.8726 23.2245C17.6829 22.5761 16.2026 21.7688 13.2201 18.7852C10.2376 15.8016 9.42864 14.3202 8.78018 13.1327L8.58339 12.7738C8.38586 12.4231 8.47685 11.9805 8.79667 11.7361L11.2208 9.85002C11.9964 9.2423 12.1756 8.14084 11.6325 7.31865L7.31314 0.841735C6.75654 0.00448406 5.63983 -0.246854 4.77814 0.271132L2.06973 1.89808C1.21874 2.39838 0.59439 3.20863 0.327617 4.15905C-0.647675 7.71265 0.0860277 13.8456 9.12044 22.8811C16.3071 30.0672 21.6573 31.9997 25.3346 31.9997C26.1809 32.0034 27.0239 31.8932 27.8409 31.6723C28.7915 31.4059 29.6019 30.7815 30.1019 29.9302L31.7305 27.2234C32.2492 26.3616 31.998 25.2442 31.1604 24.6873ZM30.8116 26.6763L29.1868 29.3847C28.8278 29.9991 28.2449 30.4508 27.5603 30.6453C24.2798 31.546 18.5484 30.8 9.87495 22.1266C1.20155 13.4532 0.455598 7.72227 1.35628 4.4412C1.551 3.7558 2.00331 3.1722 2.61846 2.81263L5.32688 1.18781C5.70076 0.962842 6.18544 1.07189 6.42696 1.43521L8.7733 4.95787L10.7426 7.91156C10.9785 8.26819 10.901 8.74619 10.5645 9.01008L8.13983 10.8962C7.40194 11.4604 7.19122 12.4813 7.64553 13.2916L7.83807 13.6414C8.51959 14.8913 9.3669 16.4463 12.4603 19.5392C15.5537 22.6321 17.1082 23.4794 18.3576 24.1609L18.7079 24.3539C19.5181 24.8082 20.5391 24.5975 21.1033 23.8596L22.9894 21.4349C23.2533 21.0987 23.7311 21.0212 24.0879 21.2568L30.5643 25.5762C30.9278 25.8175 31.0369 26.3025 30.8116 26.6763Z" fill="#cc6600"/>
<path d="M18.1324 5.33607C23.1367 5.34164 27.1921 9.3971 27.1977 14.4014C27.1977 14.6959 27.4364 14.9347 27.731 14.9347C28.0255 14.9347 28.2642 14.6959 28.2642 14.4014C28.258 8.80831 23.7255 4.27573 18.1324 4.26961C17.8379 4.26961 17.5992 4.50832 17.5992 4.80284C17.5992 5.09736 17.8379 5.33607 18.1324 5.33607Z" fill="#cc6600"/>
<path d="M18.1324 8.53561C21.3704 8.53943 23.9944 11.1634 23.9982 14.4014C23.9982 14.6959 24.237 14.9347 24.5314 14.9347C24.826 14.9347 25.0647 14.6959 25.0647 14.4014C25.0602 10.5746 21.9591 7.47352 18.1324 7.46915C17.8379 7.46915 17.5992 7.70786 17.5992 8.00238C17.5992 8.2969 17.8379 8.53561 18.1324 8.53561Z" fill="#cc6600"/>
<path d="M18.1324 11.7351C19.6042 11.7369 20.7969 12.9296 20.7987 14.4014C20.7987 14.6959 21.0375 14.9347 21.3319 14.9347C21.6264 14.9347 21.8651 14.6959 21.8651 14.4014C21.8628 12.3409 20.193 10.671 18.1324 10.6687C17.8379 10.6687 17.5992 10.9074 17.5992 11.2019C17.5992 11.4964 17.8379 11.7351 18.1324 11.7351Z" fill="#cc6600"/>
</g>
<defs>
<clipPath id="clip0">
<rect width="32" height="32" fill="white"/>
</clipPath>
</defs>
</svg>
