<svg xmlns="http://www.w3.org/2000/svg" width="48.567" height="41.464" viewBox="0 0 48.567 41.464">
    <path id="wool"
          d="M47.167,3.587c-1.6,6.21-7,4.218-10.013.508C34.2.463,30.966.224,28.77.663a10.258,10.258,0,0,0-3.747,1.616A20.134,20.134,0,0,0,.044,23.124C1.06,38.78,19.421,47.756,32.4,37.744a20.171,20.171,0,0,0,7.781-17.693.711.711,0,0,0-1.418.122,18.682,18.682,0,0,1-.1,4.187,19.866,19.866,0,0,0-1.669-5.385,20.812,20.812,0,0,0,.3-4.624,18.614,18.614,0,0,1,.913,2.623.711.711,0,1,0,1.375-.366A20.13,20.13,0,0,0,26.858,2.834c3.227-1.652,6.493-1.163,9.192,2.158,4.132,5.085,10.687,5.966,12.5-1.05a.712.712,0,1,0-1.378-.355ZM11.6,5.158A22.142,22.142,0,0,0,8.512,8.443a21.4,21.4,0,0,0-2.987,1.685A18.829,18.829,0,0,1,11.6,5.158ZM3.139,13.981a20.04,20.04,0,0,1,3.706-3.015,21.937,21.937,0,0,0-1.332,2.8,20.707,20.707,0,0,0-3.093,2.009,18.594,18.594,0,0,1,.718-1.792ZM1.767,18.233a19.31,19.31,0,0,1,3.06-2.423,22.079,22.079,0,0,0-.508,2.248,20.7,20.7,0,0,0-2.742,1.357c.056-.439.12-.816.191-1.182Zm-.332,2.949A19.267,19.267,0,0,1,4.1,19.7c-.065.681-.1,1.359-.1,2.1,0,.7.035,1.449.106,2.186a18.453,18.453,0,0,1-2.66-1.32c-.028-.613-.024-1.062-.01-1.486ZM1.6,24.39a19.823,19.823,0,0,0,2.716,1.2A21.668,21.668,0,0,0,5.094,28.7a19.06,19.06,0,0,1-2.915-1.634A18.162,18.162,0,0,1,1.6,24.39Zm2.569,7.161a18.613,18.613,0,0,1-1.215-2.335,20.356,20.356,0,0,0,2.827,1.3A21.832,21.832,0,0,0,7.3,33.4a19.012,19.012,0,0,1-3.124-1.85ZM6.5,34.6a20.293,20.293,0,0,0,2.312.944,22.107,22.107,0,0,0,2.787,2.9A18.813,18.813,0,0,1,6.5,34.6Zm24.411,2.478a15.134,15.134,0,0,1-7.362-2.148,20.42,20.42,0,0,0,6.746-3.985,19.147,19.147,0,0,1,1.045,5.821q-.212.16-.428.312Zm3.432-3.133a18.953,18.953,0,0,1-1.635,1.688,20.505,20.505,0,0,0-1.289-5.764,20.862,20.862,0,0,0,2.342-2.895,19.269,19.269,0,0,1,.583,6.971Zm3.162-5.224a18.67,18.67,0,0,1-1.646,3.19,20.617,20.617,0,0,0-1.112-6.564,20.924,20.924,0,0,0,1.676-4.006,19.923,19.923,0,0,1,1.081,7.38ZM34.074,9.339a18.778,18.778,0,0,1,1.353,1.7A19.424,19.424,0,0,1,22.06,33.914a15.519,15.519,0,0,1-2.954-2.994A20.786,20.786,0,0,0,34.074,9.339Zm-1.62-1.6A19.348,19.348,0,0,1,18.265,29.673a15.127,15.127,0,0,1-1.53-3.41A20.778,20.778,0,0,0,30.945,6.545a18.748,18.748,0,0,1,1.509,1.192ZM26.681,16.6a19.58,19.58,0,0,1-2.827,3.618,20.766,20.766,0,0,0-7.041-3.128,15.287,15.287,0,0,1,1.971-3.961A19.239,19.239,0,0,1,26.681,16.6Zm-6.929-4.724A15.464,15.464,0,0,1,23.4,8.766a19.857,19.857,0,0,1,5.482,2.66,19.553,19.553,0,0,1-1.5,3.926,20.68,20.68,0,0,0-7.628-3.474Zm3.037,9.339a18.939,18.939,0,0,1-6.41,3.665,15.158,15.158,0,0,1,.054-6.419,18.985,18.985,0,0,1,6.355,2.753ZM29.522,6.629a19.391,19.391,0,0,1-.31,3.306,21.261,21.261,0,0,0-4.089-2.081,15.1,15.1,0,0,1,4.4-1.225Zm-.644-1.356a16.352,16.352,0,0,0-10.266,5.713,16.712,16.712,0,0,0,10.271,27.34,18.6,18.6,0,0,1-3.731,1.494A18.387,18.387,0,0,1,10.768,24a.711.711,0,1,0-1.413.167A19.874,19.874,0,0,0,22.095,40.4a18.845,18.845,0,0,1-5.355-.2C1.893,32.691,1.461,11.131,16.742,3.4A18.82,18.82,0,0,1,22.1,3.2,19.859,19.859,0,0,0,9.245,20.724a.712.712,0,0,0,.673.748h.039a.711.711,0,0,0,.71-.673A18.428,18.428,0,0,1,25.15,3.784a18.7,18.7,0,0,1,3.728,1.489Zm0,0"
          transform="translate(0 -0.5)" fill="#212121"/>
</svg>
