<svg xmlns="http://www.w3.org/2000/svg" width="39.058" height="34.781" viewBox="0 0 39.058 34.781">
  <g id="anvil" opacity="0.5">
    <path id="Path_11" data-name="Path 11" d="M141.5,404.278h-4.885a.61.61,0,0,1-.611-.61v-3.053a.61.61,0,0,1,.611-.611H141.5a.61.61,0,0,1,.611.611v3.053A.61.61,0,0,1,141.5,404.278Zm-4.274-1.221h3.663v-1.832h-3.663Zm0,0" transform="translate(-125.626 -369.497)" fill="#fff"/>
    <path id="Path_12" data-name="Path 12" d="M349.5,404.278h-4.885a.61.61,0,0,1-.611-.61v-3.053a.61.61,0,0,1,.611-.611H349.5a.61.61,0,0,1,.611.611v3.053A.61.61,0,0,1,349.5,404.278Zm-4.274-1.221h3.664v-1.832h-3.664Zm0,0" transform="translate(-317.761 -369.497)" fill="#fff"/>
    <path id="Path_13" data-name="Path 13" d="M211.6,426.446a.61.61,0,0,1-.271-.064,12.368,12.368,0,0,0-10.446,0,.611.611,0,0,1-.546-1.092,13.584,13.584,0,0,1,11.537,0,.611.611,0,0,1-.274,1.157Zm0,0" transform="translate(-184.745 -391.665)" fill="#fff"/>
    <path id="Path_14" data-name="Path 14" d="M211.6,386.446a.61.61,0,0,1-.271-.064,12.368,12.368,0,0,0-10.446,0,.611.611,0,0,1-.546-1.092,13.586,13.586,0,0,1,11.537,0,.611.611,0,0,1-.274,1.157Zm0,0" transform="translate(-184.745 -354.718)" fill="#fff"/>
    <path id="Path_15" data-name="Path 15" d="M103.327,289.256H96.611a.611.611,0,0,1,0-1.221h6.716a.611.611,0,0,1,0,1.221Zm0,0" transform="translate(-88.678 -266.066)" fill="#fff"/>
    <path id="Path_16" data-name="Path 16" d="M10.99,193.225H.611a.611.611,0,1,1,0-1.221H10.99a.611.611,0,1,1,0,1.221Zm0,0" transform="translate(0 -177.36)" fill="#fff"/>
    <path id="Path_17" data-name="Path 17" d="M136.611,193.165a.61.61,0,0,1-.611-.611v-7.94a.611.611,0,0,1,1.221,0v7.94A.61.61,0,0,1,136.611,193.165Zm0,0" transform="translate(-125.626 -169.973)" fill="#fff"/>
    <path id="Path_18" data-name="Path 18" d="M139.053,185.225h-2.442a.611.611,0,1,1,0-1.221h2.442a.611.611,0,1,1,0,1.221Zm0,0" transform="translate(-125.626 -169.97)" fill="#fff"/>
    <path id="Path_19" data-name="Path 19" d="M168.611,185.775a.61.61,0,0,1-.611-.611v-8.55a.611.611,0,0,1,1.221,0v8.55A.61.61,0,0,1,168.611,185.775Zm0,0" transform="translate(-155.185 -162.583)" fill="#fff"/>
    <path id="Path_20" data-name="Path 20" d="M193.644,177.225H168.611a.611.611,0,1,1,0-1.221h25.034a.611.611,0,1,1,0,1.221Zm0,0" transform="translate(-155.198 -162.58)" fill="#fff"/>
    <path id="Path_21" data-name="Path 21" d="M342.107,342.1a.609.609,0,0,1-.406-.154l-5.5-4.875a.611.611,0,1,1,.811-.913l5.5,4.875a.611.611,0,0,1-.405,1.067Zm0,0" transform="translate(-310.373 -310.379)" fill="#fff"/>
    <path id="Path_22" data-name="Path 22" d="M136.61,356.876a.611.611,0,0,1-.4-1.075l4.274-3.654a.61.61,0,1,1,.793.927l-4.274,3.654A.6.6,0,0,1,136.61,356.876Zm0,0" transform="translate(-125.626 -325.158)" fill="#fff"/>
    <path id="Path_23" data-name="Path 23" d="M336.611,233.773a.61.61,0,0,1-.611-.611A9.169,9.169,0,0,1,345.159,224a.611.611,0,0,1,0,1.221,7.947,7.947,0,0,0-7.938,7.937A.61.61,0,0,1,336.611,233.773Zm0,0" transform="translate(-310.376 -206.923)" fill="#fff"/>
    <path id="Path_24" data-name="Path 24" d="M451.053,225.225h-2.442a.611.611,0,0,1,0-1.221h2.442a.611.611,0,1,1,0,1.221Zm0,0" transform="translate(-413.828 -206.919)" fill="#fff"/>
    <path id="Path_25" data-name="Path 25" d="M480.612,180.88a.612.612,0,0,1-.579-.8l1.221-3.663a.611.611,0,0,1,1.159.387l-1.221,3.663A.611.611,0,0,1,480.612,180.88Zm0,0" transform="translate(-443.387 -162.572)" fill="#fff"/>
    <path id="Path_26" data-name="Path 26" d="M185.214,294.139a.611.611,0,0,1-.4-1.075c.2-.175.4-.33.583-.474.769-.6,1.034-.848,1.033-1.5a1.835,1.835,0,0,0-1.831-1.831.611.611,0,1,1,0-1.221,3.057,3.057,0,0,1,3.052,3.051,2.926,2.926,0,0,1-1.5,2.463c-.171.135-.355.279-.547.443A.6.6,0,0,1,185.214,294.139Zm0,0" transform="translate(-169.957 -266.069)" fill="#fff"/>
    <path id="Path_27" data-name="Path 27" d="M7.938,200.552A7.947,7.947,0,0,1,0,192.615a.611.611,0,0,1,1.221,0,6.724,6.724,0,0,0,6.716,6.716.611.611,0,1,1,0,1.221Zm0,0" transform="translate(0 -177.362)" fill="#fff"/>
    <path id="Path_28" data-name="Path 28" d="M100.822,57.225H88.611a.611.611,0,1,1,0-1.221h12.212a.611.611,0,1,1,0,1.221Zm0,0" transform="translate(-81.289 -51.73)" fill="#fff"/>
    <path id="Path_29" data-name="Path 29" d="M100.822,97.225H88.611a.611.611,0,1,1,0-1.221h12.212a.611.611,0,1,1,0,1.221Zm0,0" transform="translate(-81.289 -88.682)" fill="#fff"/>
    <path id="Path_30" data-name="Path 30" d="M80.611,67.057A.61.61,0,0,1,80,66.446V64.615a.611.611,0,0,1,1.221,0v1.832A.61.61,0,0,1,80.611,67.057Zm0,0" transform="translate(-73.894 -59.119)" fill="#fff"/>
    <path id="Path_31" data-name="Path 31" d="M80.611,57.836A.61.61,0,0,1,80,57.225,1.222,1.222,0,0,1,81.221,56a.611.611,0,1,1,0,1.221A.61.61,0,0,1,80.611,57.836Zm0,0" transform="translate(-73.518 -51.73)" fill="#fff"/>
    <path id="Path_32" data-name="Path 32" d="M81.221,89.836A1.222,1.222,0,0,1,80,88.615a.611.611,0,0,1,1.221,0h0a.61.61,0,1,1,0,1.22Zm0,0" transform="translate(-73.518 -81.292)" fill="#fff"/>
    <path id="Path_33" data-name="Path 33" d="M254.106,12.215h-3.664A2.445,2.445,0,0,1,248,9.773V2.446A2.445,2.445,0,0,1,250.442,0h3.664a2.445,2.445,0,0,1,2.442,2.442V9.773A2.445,2.445,0,0,1,254.106,12.215Zm-3.664-10.99a1.222,1.222,0,0,0-1.221,1.221V9.773a1.222,1.222,0,0,0,1.221,1.221h3.664a1.222,1.222,0,0,0,1.221-1.221V2.446a1.222,1.222,0,0,0-1.221-1.221Zm0,0" transform="translate(-229.084 -0.004)" fill="#fff"/>
  </g>
</svg>
