<svg xmlns="http://www.w3.org/2000/svg" width="25" height="25" viewBox="0 0 25 25">
    <g id="box" transform="translate(0 0)">
        <g id="Group_266" data-name="Group 266" transform="translate(14.86 17.444)">
            <g id="Group_265" data-name="Group 265">
                <path id="Path_149" data-name="Path 149" d="M352.358,363.57a.618.618,0,0,0-.794-.366l-6.43,2.373a.618.618,0,1,0,.428,1.16l6.43-2.373A.618.618,0,0,0,352.358,363.57Z"
                      transform="translate(-344.73 -363.166)" fill="#212121"/>
            </g>
        </g>
        <g id="Group_268" data-name="Group 268" transform="translate(15.002 19.56)">
            <g id="Group_267" data-name="Group 267">
                <path id="Path_150" data-name="Path 150" d="M312.544,413.47a.618.618,0,0,0-.794-.366l-.272.1a.618.618,0,1,0,.428,1.16l.272-.1A.618.618,0,0,0,312.544,413.47Z"
                      transform="translate(-311.074 -413.066)" fill="#212121"/>
            </g>
        </g>
        <g id="Group_270" data-name="Group 270" transform="translate(16.208 15.461)">
            <g id="Group_269" data-name="Group 269">
                <path id="Path_151" data-name="Path 151" d="M373.257,322.01a.618.618,0,0,0-.794-.366l-5.082,1.875a.618.618,0,1,0,.428,1.16l5.082-1.875A.618.618,0,0,0,373.257,322.01Z"
                      transform="translate(-366.977 -321.605)" fill="#212121"/>
            </g>
        </g>
        <g id="Group_272" data-name="Group 272" transform="translate(16.208 13.426)">
            <g id="Group_271" data-name="Group 271">
                <path id="Path_152" data-name="Path 152" d="M373.257,280.881a.618.618,0,0,0-.794-.366l-5.082,1.875a.618.618,0,1,0,.428,1.16l5.082-1.875A.618.618,0,0,0,373.257,280.881Z"
                      transform="translate(-366.977 -280.476)" fill="#212121"/>
            </g>
        </g>
        <g id="Group_274" data-name="Group 274">
            <g id="Group_273" data-name="Group 273">
                <path id="Path_153" data-name="Path 153"
                      d="M24.674,13.828l-12-4.594a.482.482,0,0,0-.345,0l-12,4.594h0a.494.494,0,0,0-.112.06A.523.523,0,0,0,0,14.312v14.78a.516.516,0,0,0,.326.485l12,4.594a.479.479,0,0,0,.345,0h0l12-4.594A.516.516,0,0,0,25,29.092V14.312A.516.516,0,0,0,24.674,13.828ZM12,32.944,1,28.732V15.053l2.241.858V22.17a.516.516,0,0,0,.326.485l5.378,2.059a.483.483,0,0,0,.457-.061.522.522,0,0,0,.213-.424V18.351l2.39.915V32.944ZM8.616,17.97v5.518L4.233,21.81V16.292ZM5.174,15.547l3.94-1.508,3.94,1.508-3.94,1.508ZM12.5,18.355l-1.953-.748,4.118-1.576a.524.524,0,0,0,0-.969L9.286,13a.482.482,0,0,0-.345,0L3.73,15l-1.793-.686L12.5,10.269l10.563,4.043ZM24,28.732,13,32.944V19.266L24,15.053Z"
                      transform="translate(0 -9.202)" fill="#212121"/>
            </g>
        </g>
    </g>
</svg>
