<svg xmlns="http://www.w3.org/2000/svg" width="18.326" height="18.432" viewBox="0 0 18.326 18.432">
  <path fill="#fff" opacity=".5" id="tunic" d="M18.749,6.061l-4-5.248a.6.6,0,0,0-.481-.244H5.076a.6.6,0,0,0-.481.244L.653,6.213a.6.6,0,0,0,.059.775l2.8,2.51V18.4a.6.6,0,0,0,.832.549l2.325-1.106h6.122l2.363,1.106a.6.6,0,0,0,.832-.549V9.5l2.7-2.64A.627.627,0,0,0,18.749,6.061ZM12.406,1.194,9.749,5.452h-.11L7.015,1.194Zm3.031,7.914-1.17-1.17c-.233-.233-.33-.436-.563-.2s-.214.165.019.4L15.14,9.55,15.121,18l-1.9-.759v-4.78c0-.33.041-.52-.289-.52s-.361.267-.361.6v4.576H10.062V14.127c0-.33.016-.6-.313-.6s-.265.267-.265.6v2.984H6.863V12.535c0-.33.032-.6-.3-.6s-.311.064-.311.394v4.78L4.377,18V9.55L5.794,8.134c.233-.233.233-.165,0-.4s-.36-.185-.593.048l-1.17,1.17L1.38,6.506l3.9-5.312h.946L9.046,5.673c.072.124.306.494.438.54V8.954c0,.33-.065.6.265.6s.313-.267.313-.6V6.213c.131-.046.381-.416.453-.54l2.76-4.479h.946l3.9,5.312Z" transform="translate(-0.538 -0.569)"/>
</svg>
