<svg xmlns="http://www.w3.org/2000/svg" width="21.329" height="19" viewBox="0 0 21.329 19">
    <g id="armor" transform="translate(0 -0.452)" fill="#fff">
        <path id="Path_276" data-name="Path 276"
              d="M91.837,178.614a.333.333,0,0,1-.332-.305l-.662-7.742-.882-1.6a.333.333,0,1,1,.584-.321l.916,1.667a.336.336,0,0,1,.04.132l.668,7.812a.333.333,0,0,1-.3.36h-.029Zm0,0"
              transform="translate(-86.173 -161.016)"/>
        <path id="Path_277" data-name="Path 277"
              d="M26.341,6.123a.333.333,0,0,1-.248-.11l-2.1-2.338a.333.333,0,0,1,.073-.507L28.4.5a.333.333,0,0,1,.35.568L24.753,3.527,26.4,5.363l3.661-2.2a.333.333,0,0,1,.343.572l-3.9,2.338A.335.335,0,0,1,26.341,6.123Zm0,0"
              transform="translate(-22.908 0)"/>
        <path id="Path_278" data-name="Path 278"
              d="M3.329,84.471a.329.329,0,0,1-.133-.028l-3-1.3a.333.333,0,0,1-.13-.511l1.6-2.046a.333.333,0,1,1,.525.41L.861,82.7l2.377,1.031,2.729-3.161a.333.333,0,1,1,.5.435L3.582,84.355a.334.334,0,0,1-.253.116Zm0,0"
              transform="translate(0 -76.672)"/>
        <path id="Path_279" data-name="Path 279"
              d="M11.238,127.562a.354.354,0,0,1-.073-.008l-3-.667a.334.334,0,0,1-.257-.38l.332-2a.333.333,0,0,1,.657.109l-.28,1.688,2.393.532.909-2.906a.333.333,0,0,1,.636.2l-1,3.2A.332.332,0,0,1,11.238,127.562Zm0,0"
              transform="translate(-7.575 -118.109)"/>
        <path id="Path_280" data-name="Path 280"
              d="M368.281,178.612h-.029a.333.333,0,0,1-.3-.36l.668-7.812a.331.331,0,0,1,.04-.132l.916-1.667a.333.333,0,1,1,.584.321l-.882,1.6-.662,7.742a.334.334,0,0,1-.332.305Zm0,0"
              transform="translate(-352.617 -161.014)"/>
        <path id="Path_281" data-name="Path 281"
              d="M332.211,6.131a.333.333,0,0,1-.172-.048l-3.9-2.338a.333.333,0,1,1,.343-.572l3.661,2.2L333.8,3.534l-3.993-2.457a.333.333,0,0,1,.35-.568l4.333,2.667a.333.333,0,0,1,.073.507l-2.1,2.338a.334.334,0,0,1-.248.11Zm0,0"
              transform="translate(-314.316 -0.008)"/>
        <path id="Path_282" data-name="Path 282"
              d="M357.881,84.471a.332.332,0,0,1-.252-.116l-2.889-3.346a.333.333,0,1,1,.5-.435l2.729,3.161L360.35,82.7,359.019,81a.333.333,0,0,1,.525-.41l1.6,2.046a.333.333,0,0,1-.13.511l-3,1.3A.338.338,0,0,1,357.881,84.471Zm0,0"
              transform="translate(-339.882 -76.672)"/>
        <path id="Path_283" data-name="Path 283"
              d="M393.321,127.565a.333.333,0,0,1-.318-.234l-1-3.2a.333.333,0,0,1,.636-.2l.909,2.906,2.393-.532-.28-1.688a.333.333,0,0,1,.274-.383.329.329,0,0,1,.383.274l.332,2a.334.334,0,0,1-.257.38l-3,.667a.354.354,0,0,1-.072.008Zm0,0"
              transform="translate(-375.656 -118.113)"/>
        <path id="Path_284" data-name="Path 284" d="M138.242,1.128h-10a.333.333,0,1,1,0-.667h10a.333.333,0,1,1,0,.667Zm0,0" transform="translate(-122.577 -0.009)"/>
        <path id="Path_285" data-name="Path 285" d="M112.235,140.124a.333.333,0,0,1-.156-.628l5.667-3a.333.333,0,0,1,.312.589l-5.667,3A.334.334,0,0,1,112.235,140.124Zm0,0"
              transform="translate(-107.239 -130.339)"/>
        <path id="Path_286" data-name="Path 286" d="M253.941,140.124a.334.334,0,0,1-.156-.039l-5.667-3a.333.333,0,1,1,.312-.589l5.667,3a.333.333,0,0,1-.156.628Zm0,0"
              transform="translate(-237.611 -130.339)"/>
        <path id="Path_287" data-name="Path 287" d="M171.607,180.685a.331.331,0,0,1-.116-.021l-3.333-1.236a.333.333,0,1,1,.232-.625l3.333,1.236a.333.333,0,0,1-.116.646Zm0,0"
              transform="translate(-160.943 -170.899)"/>
        <path id="Path_288" data-name="Path 288" d="M248.274,180.692a.333.333,0,0,1-.116-.646l3.333-1.236a.333.333,0,0,1,.232.625l-3.333,1.236a.336.336,0,0,1-.116.021Zm0,0"
              transform="translate(-237.61 -170.907)"/>
        <path id="Path_289" data-name="Path 289" d="M171.607,260.682a.33.33,0,0,1-.116-.021l-3.333-1.236a.333.333,0,1,1,.232-.625l3.333,1.236a.333.333,0,0,1-.116.646Zm0,0"
              transform="translate(-160.943 -247.563)"/>
        <path id="Path_290" data-name="Path 290" d="M248.274,260.686a.333.333,0,0,1-.116-.646l3.333-1.236a.333.333,0,0,1,.232.625l-3.333,1.236A.335.335,0,0,1,248.274,260.686Zm0,0"
              transform="translate(-237.61 -247.567)"/>
        <path id="Path_291" data-name="Path 291" d="M171.607,340.685a.331.331,0,0,1-.116-.021l-3.333-1.236a.333.333,0,1,1,.232-.625l3.333,1.236a.333.333,0,0,1-.116.646Zm0,0"
              transform="translate(-160.943 -324.233)"/>
        <path id="Path_292" data-name="Path 292" d="M248.274,340.692a.333.333,0,0,1-.116-.646l3.333-1.236a.333.333,0,0,1,.232.625l-3.333,1.236A.335.335,0,0,1,248.274,340.692Zm0,0"
              transform="translate(-237.61 -324.24)"/>
        <path id="Path_293" data-name="Path 293" d="M133.274,398.464a.33.33,0,0,1-.116-.021l-5-1.854a.333.333,0,1,1,.232-.625l5,1.854a.333.333,0,0,1-.116.646Zm0,0"
              transform="translate(-122.61 -379.013)"/>
        <path id="Path_294" data-name="Path 294" d="M248.274,398.472a.333.333,0,0,1-.116-.646l5-1.854a.333.333,0,0,1,.232.625l-5,1.854A.336.336,0,0,1,248.274,398.472Zm0,0"
              transform="translate(-237.61 -379.02)"/>
        <path id="Path_295" data-name="Path 295" d="M129.9,3.788a.333.333,0,0,1-.283-.157L127.954.964a.333.333,0,0,1,.565-.354l1.667,2.667a.333.333,0,0,1-.106.459A.328.328,0,0,1,129.9,3.788Zm0,0"
              transform="translate(-122.575 -0.002)"/>
        <path id="Path_296" data-name="Path 296" d="M328.325,3.793a.333.333,0,0,1-.282-.51L329.709.617a.333.333,0,1,1,.565.354l-1.667,2.667A.334.334,0,0,1,328.325,3.793Zm0,0"
              transform="translate(-314.326 -0.008)"/>
        <path id="Path_297" data-name="Path 297" d="M171.612,3.8a.332.332,0,0,1-.208-.073l-3.333-2.667a.333.333,0,0,1,.417-.521l3.333,2.667a.333.333,0,0,1-.209.594Zm0,0"
              transform="translate(-160.949 -0.013)"/>
        <path id="Path_298" data-name="Path 298" d="M248.281,3.791a.333.333,0,0,1-.209-.594L251.406.531a.333.333,0,1,1,.417.521l-3.333,2.667a.331.331,0,0,1-.208.073Zm0,0"
              transform="translate(-237.617 -0.006)"/>
        <path id="Path_299" data-name="Path 299" d="M248.278,66.128a.333.333,0,0,1-.333-.333v-1a.333.333,0,1,1,.667,0v1A.333.333,0,0,1,248.278,66.128Zm0,0" transform="translate(-237.615 -61.342)"/>
        <path id="Path_300" data-name="Path 300" d="M168.278,189.121a.333.333,0,0,1-.333-.333v-9.666a.333.333,0,0,1,.667,0v9.666A.333.333,0,0,1,168.278,189.121Zm0,0"
              transform="translate(-160.948 -170.907)"/>
        <path id="Path_301" data-name="Path 301" d="M328.278,189.121a.333.333,0,0,1-.333-.333v-9.666a.333.333,0,0,1,.667,0v9.666A.333.333,0,0,1,328.278,189.121Zm0,0"
              transform="translate(-314.281 -170.907)"/>
    </g>
</svg>
