<svg xmlns="http://www.w3.org/2000/svg" width="24.923" height="24.923" viewBox="0 0 24.923 24.923">
    <g id="hammer" transform="translate(0 0)">
        <path id="Path_143" data-name="Path 143"
              d="M402.2,0a.44.44,0,0,0-.44.44,1.322,1.322,0,0,1-1.32,1.32.44.44,0,0,0,0,.88,1.322,1.322,0,0,1,1.32,1.32.44.44,0,1,0,.88,0,1.322,1.322,0,0,1,1.32-1.32.44.44,0,0,0,0-.88,1.322,1.322,0,0,1-1.32-1.32A.44.44,0,0,0,402.2,0Zm.454,2.2a.454.454,0,1,1-.907,0,.454.454,0,1,1,.907,0Zm0,0"
              transform="translate(-379.478)"/>
        <path id="Path_144" data-name="Path 144"
              d="M2.2,52.951H3.961A.444.444,0,0,0,4.3,52.8c.036.038.071.076.109.112,0,.006,0,.011,0,.018V69.869a.427.427,0,0,0,.44.413H8.363a.427.427,0,0,0,.44-.413V52.905a2.946,2.946,0,0,0,.294-.33l.152.856a.433.433,0,0,0,.434.345h3.961a.427.427,0,0,0,.44-.413V48.412a.427.427,0,0,0-.44-.413H9.683a.433.433,0,0,0-.434.345L9.1,49.2A3.127,3.127,0,0,0,6.754,48a3.17,3.17,0,0,0-2.457.976.444.444,0,0,0-.335-.154H2.2a2.067,2.067,0,1,0,0,4.126Zm7.855-4.126h2.526l-1.009.946.622.583,1.009-.946v.9l-1.191,1.117.622.583.569-.534v1.48H10.056l-.367-2.063ZM7.042,69.456V67.806h-.88v1.651h-.88V53.494a3.225,3.225,0,0,0,2.641,0V69.456ZM6.6,48.825a2.067,2.067,0,1,1,0,4.126,2.067,2.067,0,1,1,0-4.126Zm-4.4.825h1.32v2.476H2.2a1.24,1.24,0,1,1,0-2.476Zm0,0"
              transform="translate(0 -45.358)"/>
        <path id="Path_145" data-name="Path 145"
              d="M293.282,59.141V48.413a.427.427,0,0,0-.44-.413h-4.4a.427.427,0,0,0-.44.413V59.141a.4.4,0,0,0,.165.322l1.221.916h-.946a.427.427,0,0,0-.44.413v7.015a2.646,2.646,0,0,0,5.282,0V60.792a.427.427,0,0,0-.44-.413H291.9l1.221-.916A.4.4,0,0,0,293.282,59.141Zm-.88,8.665a1.764,1.764,0,0,1-3.521,0V62.855H292.4Zm0-5.777H288.88V61.2H292.4Zm-1.761-1.766-1.761-1.32V48.825h2.9l-1.449,1.359.622.583,1.449-1.359v.9l-1.632,1.53.622.583,1.009-.946v7.471Zm0,0"
              transform="translate(-273.269 -45.359)"/>
        <path id="Path_146" data-name="Path 146" d="M112,400h.88v.88H112Zm0,0" transform="translate(-106.196 -379.478)"/>
        <path id="Path_147" data-name="Path 147" d="M112,368h.88v.88H112Zm0,0" transform="translate(-106.196 -348.931)"/>
        <path id="Path_148" data-name="Path 148" d="M328.44,357.282a.881.881,0,0,0,.88-.88V352.44a.44.44,0,1,0-.88,0V356.4a.44.44,0,0,0,0,.88Zm0,0" transform="translate(-311.022 -334.119)"/>
    </g>
</svg>
