<svg xmlns="http://www.w3.org/2000/svg" width="19" height="19" viewBox="0 0 19 19">
    <g id="masks" transform="translate(0 -0.001)" fill="#fff" opacity=".5">
        <g id="Group_1020" data-name="Group 1020" transform="translate(0 0.001)">
            <g id="Group_1019" data-name="Group 1019" transform="translate(0 0)">
                <path id="Path_302" data-name="Path 302"
                      d="M18.891,2.98A12.014,12.014,0,0,0,14.011.5,14.661,14.661,0,0,0,10.383,0,7.221,7.221,0,0,0,8.542.207.371.371,0,0,0,8.28.469c-.109.407-.2.831-.28,1.267a.364.364,0,0,0-.007.039,17.844,17.844,0,0,0-.152,5.2,14.981,14.981,0,0,0-2.851.47A12.013,12.013,0,0,0,.109,9.929a.371.371,0,0,0-.1.358c.118.442.263.893.429,1.345v0a17.808,17.808,0,0,0,2.346,4.38C3.807,17.377,5.412,19,7.268,19a3.051,3.051,0,0,0,.79-.1,4.013,4.013,0,0,0,2.574-2.737,12.378,12.378,0,0,0,.652-4.142,3.053,3.053,0,0,0,.447.033c1.857,0,3.461-1.624,4.48-2.987a17.753,17.753,0,0,0,2.776-5.727A.371.371,0,0,0,18.891,2.98ZM7.866,18.18a2.31,2.31,0,0,1-.6.079c-1.209,0-2.589-.955-3.885-2.689a16.963,16.963,0,0,1-2.153-3.95c.2-.155.52-.4.851-.62a.371.371,0,1,0-.415-.615c-.257.173-.5.354-.7.5q-.1-.291-.179-.578A11.659,11.659,0,0,1,5.182,8.163a14.2,14.2,0,0,1,2.777-.45A9.153,9.153,0,0,0,8.437,9.39l0,.007q.029.072.059.141l0,.008a6.037,6.037,0,0,0,.334.667l0,.008v0l.021.036c.015.025.03.048.045.073l.029.047.064.1.031.046.066.095.028.038c.024.033.049.065.073.1l.008.01c.049.062.1.121.15.179A1.188,1.188,0,0,1,7.4,10.8a.371.371,0,1,0-.643.371,1.931,1.931,0,0,0,3.149.278,3.141,3.141,0,0,0,.377.239l.016.009.1.052.029.014.1.045.012.006C10.556,14.586,9.863,17.645,7.866,18.18Zm7.751-9.56c-1.3,1.734-2.676,2.689-3.885,2.689a2.31,2.31,0,0,1-.6-.079c-.036-.01-.071-.02-.106-.032h0c-1.6-.516-2.187-2.685-2.391-3.931l0-.008-.011-.067a16.7,16.7,0,0,1,.061-5.044c.251-.034.648-.084,1.048-.112a.371.371,0,1,0-.052-.74c-.308.022-.61.054-.853.085.036-.171.075-.341.117-.507A7.01,7.01,0,0,1,10.383.743a13.885,13.885,0,0,1,3.436.47,11.662,11.662,0,0,1,4.393,2.145A17.021,17.021,0,0,1,15.617,8.62Z"
                      transform="translate(0 -0.001)"/>
            </g>
        </g>
        <g id="Group_1022" data-name="Group 1022" transform="translate(13.16 4.788)">
            <g id="Group_1021" data-name="Group 1021">
                <path id="Path_303" data-name="Path 303" d="M358.029,129.97a1.931,1.931,0,0,0-3.345,0,.371.371,0,1,0,.643.371,1.189,1.189,0,0,1,2.059,0,.371.371,0,1,0,.643-.371Z"
                      transform="translate(-354.634 -129.004)"/>
            </g>
        </g>
        <g id="Group_1024" data-name="Group 1024" transform="translate(8.929 3.441)">
            <g id="Group_1023" data-name="Group 1023">
                <path id="Path_304" data-name="Path 304"
                      d="M242.716,92.944a1.936,1.936,0,0,0-1.931,0,.371.371,0,0,0,.371.643,1.189,1.189,0,0,1,1.783,1.03.371.371,0,1,0,.742,0A1.937,1.937,0,0,0,242.716,92.944Z"
                      transform="translate(-240.599 -92.687)"/>
            </g>
        </g>
        <g id="Group_1026" data-name="Group 1026" transform="translate(10.234 7.613)">
            <g id="Group_1025" data-name="Group 1025">
                <path id="Path_305" data-name="Path 305"
                      d="M279.032,205.94a.371.371,0,0,0-.525,0,1.189,1.189,0,0,1-1.989-.533.371.371,0,1,0-.717.192,1.931,1.931,0,0,0,3.231.866A.371.371,0,0,0,279.032,205.94Z"
                      transform="translate(-275.789 -205.132)"/>
            </g>
        </g>
        <g id="Group_1028" data-name="Group 1028" transform="translate(2.239 11.181)">
            <g id="Group_1027" data-name="Group 1027">
                <path id="Path_306" data-name="Path 306"
                      d="M63.043,301.258h0a.371.371,0,0,0-.371.371,1.189,1.189,0,0,1-1.783,1.03.371.371,0,1,0-.371.643,1.931,1.931,0,0,0,2.9-1.672A.371.371,0,0,0,63.043,301.258Z"
                      transform="translate(-60.332 -301.258)"/>
            </g>
        </g>
        <g id="Group_1030" data-name="Group 1030" transform="translate(5.615 14.859)">
            <g id="Group_1029" data-name="Group 1029">
                <path id="Path_307" data-name="Path 307" d="M154.562,400.961a1.931,1.931,0,0,0-3.231.866.371.371,0,1,0,.717.192,1.189,1.189,0,0,1,1.989-.533.371.371,0,0,0,.525-.525Z"
                      transform="translate(-151.319 -400.396)"/>
            </g>
        </g>
        <g id="Group_1032" data-name="Group 1032" transform="translate(10.383 1.301)">
            <g id="Group_1031" data-name="Group 1031">
                <path id="Path_308" data-name="Path 308" d="M280.233,35.034l-.028,0a.371.371,0,1,0-.107.734l.018,0a.371.371,0,1,0,.117-.733Z" transform="translate(-279.78 -35.026)"/>
            </g>
        </g>
        <g id="Group_1034" data-name="Group 1034" transform="translate(2.414 9.792)">
            <g id="Group_1033" data-name="Group 1033">
                <path id="Path_309" data-name="Path 309" d="M65.8,264.077a.371.371,0,0,0-.478-.216l-.028.011a.371.371,0,1,0,.275.689l.015-.006A.371.371,0,0,0,65.8,264.077Z"
                      transform="translate(-65.062 -263.837)"/>
            </g>
        </g>
    </g>
</svg>
