<svg xmlns="http://www.w3.org/2000/svg" width="52.345" height="36.619" viewBox="0 0 52.345 36.619">
    <g id="wooden">
        <path id="Path_114" data-name="Path 114" d="M256.872,129.745h1.745a.872.872,0,1,0,0-1.745h-1.745a.872.872,0,1,0,0,1.745Zm0,0" transform="translate(-228.083 -114.051)" fill="#212121"/>
        <path id="Path_115" data-name="Path 115" d="M226.617,192h-1.745a.872.872,0,0,0,0,1.745h1.745a.872.872,0,0,0,0-1.745Zm0,0" transform="translate(-199.572 -171.076)" fill="#212121"/>
        <path id="Path_116" data-name="Path 116" d="M88.872,129.745a5.24,5.24,0,0,1,5.234,5.234.872.872,0,1,0,1.745,0A6.987,6.987,0,0,0,88.872,128a.872.872,0,1,0,0,1.745Zm0,0"
              transform="translate(-78.403 -114.052)" fill="#212121"/>
        <path id="Path_117" data-name="Path 117" d="M42.968,190.6a.873.873,0,1,0-1-1.431,5.235,5.235,0,0,1-8.225-4.3.872.872,0,1,0-1.745,0A6.98,6.98,0,0,0,42.968,190.6Zm0,0"
              transform="translate(-28.51 -163.95)" fill="#212121"/>
        <path id="Path_118" data-name="Path 118" d="M64,168.933a3.49,3.49,0,1,0,6.091-2.327.872.872,0,0,0-1.3,1.164,1.745,1.745,0,1,1-2.464-.138.872.872,0,1,0-1.164-1.3,3.5,3.5,0,0,0-1.163,2.6Zm0,0"
              transform="translate(-57.021 -148.008)" fill="#212121"/>
        <path id="Path_119" data-name="Path 119" d="M265.6,160.872a.873.873,0,0,0-.872-.872h-7.852a.872.872,0,1,0,0,1.745h7.852a.873.873,0,0,0,.872-.872Zm0,0" transform="translate(-228.083 -142.563)"
              fill="#212121"/>
        <path id="Path_120" data-name="Path 120" d="M211.49,160.872a.873.873,0,0,0-.872-.872h-1.745a.872.872,0,1,0,0,1.745h1.745a.873.873,0,0,0,.872-.872Zm0,0" transform="translate(-185.317 -142.563)"
              fill="#212121"/>
        <path id="Path_121" data-name="Path 121" d="M330.617,224h-1.745a.872.872,0,1,0,0,1.745h1.745a.872.872,0,1,0,0-1.745Zm0,0" transform="translate(-292.231 -199.588)" fill="#212121"/>
        <path id="Path_122" data-name="Path 122" d="M256,304h1.745v1.745H256Zm0,0" transform="translate(-228.083 -270.871)" fill="#212121"/>
        <path id="Path_123" data-name="Path 123" d="M272,320h3.49v1.745H272Zm0,0" transform="translate(-242.338 -285.126)" fill="#212121"/>
        <path id="Path_124" data-name="Path 124" d="M0,288H3.49v1.745H0Zm0,0" transform="translate(0 -256.616)" fill="#212121"/>
        <path id="Path_125" data-name="Path 125" d="M432,288h5.234v1.745H432Zm0,0" transform="translate(-384.89 -256.616)" fill="#212121"/>
        <path id="Path_126" data-name="Path 126" d="M400,304h1.745v1.745H400Zm0,0" transform="translate(-356.379 -270.871)" fill="#212121"/>
        <path id="Path_127" data-name="Path 127"
              d="M37.886,137.955a.872.872,0,0,0,1.162-.414,5.255,5.255,0,0,1,2.488-2.488.872.872,0,0,0-.748-1.576,7.007,7.007,0,0,0-3.316,3.316.872.872,0,0,0,.414,1.162Zm0,0"
              transform="translate(-33.31 -118.857)" fill="#212121"/>
        <path id="Path_128" data-name="Path 128"
              d="M41.876,10.461H28.949L26.14.633A.873.873,0,0,0,25.3,0H20.066a.871.871,0,0,0-.839,1.111l2.673,9.35H10.469a10.461,10.461,0,1,0,0,20.923H41.876a10.461,10.461,0,1,0,0-20.923ZM1.745,20.923a8.724,8.724,0,1,1,8.724,8.718A8.721,8.721,0,0,1,1.745,20.923Zm48.109,3.513a.8.8,0,0,0-.127-.026H41.876a.872.872,0,1,0,0,1.744h6.962a8.708,8.708,0,0,1-6.962,3.487H16.244a10.529,10.529,0,0,0,3.278-3.487h13.63a.872.872,0,1,0,0-1.744H20.327a10.324,10.324,0,0,0-.806-8.718H25.3a.872.872,0,1,0,0-1.744H18.321c-.021,0-.039.011-.06.012A10.546,10.546,0,0,0,16.244,12.2h6.813a.871.871,0,0,0,.839-1.111l-2.673-9.35h3.42l2.81,9.829a.873.873,0,0,0,.839.633H41.876a8.734,8.734,0,0,1,7.991,5.231H40.131a.872.872,0,1,0,0,1.744H50.424a8.671,8.671,0,0,1-.57,5.256Zm0,0"
              transform="translate(0 0)" fill="#212121"/>
    </g>
</svg>
