<svg width="512" height="452" viewBox="0 0 512 452" fill="none" xmlns="http://www.w3.org/2000/svg">
    <path d="M38.2463 451.409H74.5251C110.705 451.409 145.274 436.576 170.786 410.405C197.737 417.492 227.925 421.354 256.855 421.354C334.784 421.354 400.546 398.836 447.029 356.236C468.147 336.884 484.525 314.092 495.71 288.494C506.519 263.757 512 237.567 512 210.65C512 155.247 488.968 103.682 447.148 65.454C400.727 23.0211 334.924 0.591431 256.856 0.591431C194.883 0.591431 137.956 18.0471 92.2271 51.0699C50.1459 81.46 19.858 123.746 6.94458 170.139C-3.81793 208.803 -2.04371 248.115 12.0749 283.827C26.2035 319.566 52.5973 350.729 88.6917 374.416C86.3695 393.932 77.7319 411.923 63.8998 425.755L38.2463 451.409Z"
          fill="#3F55E2"/>
</svg>
