<svg width="15" height="19" viewBox="0 0 15 19" fill="none" xmlns="http://www.w3.org/2000/svg">
    <path d="M7.50005 17.6518C6.90474 17.1422 5.37349 15.6957 3.882 13.9121C1.66948 11.2662 0.5 9.04899 0.5 7.50005C0.5 3.64021 3.64021 0.5 7.50005 0.5C11.3599 0.5 14.5001 3.64021 14.5001 7.50005C14.5001 9.04899 13.3306 11.2662 11.1181 13.9121C9.62661 15.6957 8.09536 17.1422 7.50005 17.6518Z"
          fill="#cc6600"/>
    <path d="M7.50005 1C3.91591 1 1 3.91591 1 7.50005C1 8.89514 2.13862 11.0331 4.2061 13.52C5.49947 15.0758 6.79659 16.3416 7.50005 16.982C8.20351 16.3416 9.50063 15.0758 10.794 13.52C12.8615 11.0331 14.0001 8.89514 14.0001 7.50005C14.0001 3.91591 11.0842 1 7.50005 1ZM7.50005 0C11.6422 0 15.0001 3.35789 15.0001 7.50005C15.0001 11.6422 7.70187 18.2762 7.50005 18.2762C7.29823 18.2762 0 11.6422 0 7.50005C0 3.35789 3.35789 0 7.50005 0Z"
          fill="#cc6600"/>
    <path d="M7.5 12C9.98528 12 12 9.98528 12 7.5C12 5.01472 9.98528 3 7.5 3C5.01472 3 3 5.01472 3 7.5C3 9.98528 5.01472 12 7.5 12Z" fill="white"/>
</svg>
