<svg width="34" height="34" viewBox="0 0 34 34" fill="none" xmlns="http://www.w3.org/2000/svg">
    <path d="M33.4574 1.62766H0.542553C0.242919 1.62766 0 1.8705 0 2.17021V31.8298C0 32.1295 0.242919 32.3723 0.542553 32.3723H33.4574C33.7571 32.3723 34 32.1295 34 31.8298V26.0425C34 25.7428 33.7571 25.5 33.4574 25.5C33.1578 25.5 32.9149 25.7428 32.9149 26.0425V31.2872H1.08511V7.05319H32.9149V23.8723C32.9149 24.172 33.1578 24.4149 33.4574 24.4149C33.7571 24.4149 34 24.172 34 23.8723V2.17021C34 1.8705 33.7571 1.62766 33.4574 1.62766ZM1.08511 2.71276H21.1596V5.96808H1.08511V2.71276ZM22.2447 5.96808V2.71276H32.9149V5.96808H22.2447Z"
          fill="#000"/>
    <path d="M27.5979 3.76169C27.2788 3.76169 27.0191 4.02132 27.0191 4.34041C27.0191 4.65951 27.2788 4.91914 27.5979 4.91914C27.917 4.91914 28.1766 4.65951 28.1766 4.34041C28.1766 4.02132 27.917 3.76169 27.5979 3.76169Z"
          fill="#000"/>
    <path d="M24.6319 3.76169C24.3128 3.76169 24.0532 4.02132 24.0532 4.34041C24.0532 4.65951 24.3128 4.91914 24.6319 4.91914C24.951 4.91914 25.2106 4.65951 25.2106 4.34041C25.2106 4.02132 24.951 3.76169 24.6319 3.76169Z"
          fill="#000"/>
    <path d="M30.5638 3.76169C30.2447 3.76169 29.9851 4.02132 29.9851 4.34041C29.9851 4.65951 30.2447 4.91914 30.5638 4.91914C30.8829 4.91914 31.1426 4.65951 31.1426 4.34041C31.1426 4.02132 30.8829 3.76169 30.5638 3.76169Z"
          fill="#000"/>
    <path d="M10.758 16.3482C10.9714 16.3215 11.1488 16.1714 11.2104 15.9655L12.4585 11.7991C12.5445 11.5121 12.3816 11.2097 12.0945 11.1237C11.8076 11.0377 11.5051 11.2006 11.4191 11.4877L10.5239 14.4758L9.66106 13.0356C9.56304 12.872 9.38638 12.7719 9.19562 12.7719C9.00486 12.7719 8.82821 12.872 8.73019 13.0356L7.86731 14.4758L6.97231 11.4883C6.88637 11.2012 6.58392 11.0382 6.29687 11.1242C6.00983 11.2102 5.84684 11.5126 5.93286 11.7997L7.1808 15.9655C7.24251 16.1714 7.41996 16.3215 7.63322 16.3482C7.65579 16.351 7.67828 16.3524 7.70064 16.3524C7.88959 16.3524 8.06711 16.2535 8.16593 16.0886L9.19555 14.3701L10.2252 16.0886C10.3359 16.273 10.5449 16.375 10.758 16.3482Z"
          fill="#000"/>
    <path d="M14.928 16.3476C14.9506 16.3505 14.9731 16.3518 14.9954 16.3518C15.1844 16.3518 15.3619 16.253 15.4607 16.0881L16.4903 14.3696L17.52 16.0881C17.6304 16.2725 17.8394 16.3743 18.0527 16.3476C18.266 16.3209 18.4435 16.1709 18.5051 15.965L19.7532 11.7986C19.8391 11.5115 19.6762 11.2092 19.3892 11.1231C19.1021 11.0371 18.7997 11.2 18.7137 11.4872L17.8186 14.4753L16.9557 13.0352C16.8577 12.8715 16.681 12.7714 16.4903 12.7714C16.2995 12.7714 16.1229 12.8715 16.0248 13.0352L15.1621 14.4753L14.2671 11.4877C14.1812 11.2007 13.8789 11.0376 13.5917 11.1237C13.3046 11.2097 13.1416 11.5121 13.2277 11.7992L14.4756 15.965C14.5373 16.1709 14.7148 16.3209 14.928 16.3476Z"
          fill="#000"/>
    <path d="M26.6838 11.1227C26.3969 11.0368 26.0944 11.1997 26.0084 11.4867L25.1133 14.4747L24.2504 13.0346C24.1524 12.871 23.9757 12.7708 23.7849 12.7708C23.5942 12.7708 23.4175 12.871 23.3195 13.0346L22.4566 14.4747L21.5616 11.4872C21.4756 11.2003 21.1734 11.0373 20.8862 11.1232C20.5992 11.2092 20.4362 11.5116 20.5222 11.7987L21.7701 15.9645C21.8318 16.1704 22.0093 16.3204 22.2225 16.3471C22.4359 16.3738 22.6447 16.272 22.7553 16.0876L23.7849 14.3691L24.8145 16.0876C24.9133 16.2524 25.0908 16.3513 25.2798 16.3513C25.3021 16.3513 25.3247 16.35 25.3472 16.3471C25.5605 16.3204 25.738 16.1704 25.7996 15.9645L27.0477 11.7982C27.1338 11.5111 26.9709 11.2086 26.6838 11.1227Z"
          fill="#000"/>
    <path d="M9.88894 19.4268C9.88894 19.1271 9.64602 18.8842 9.34639 18.8842H6.45277C6.15314 18.8842 5.91022 19.1271 5.91022 19.4268V22.3204C5.91022 22.6201 6.15314 22.863 6.45277 22.863H9.34639C9.64602 22.863 9.88894 22.6201 9.88894 22.3204V19.4268ZM8.80383 21.7779H6.99532V19.9694H8.80383V21.7779Z"
          fill="#000"/>
    <path d="M9.34639 23.9481H6.45277C6.15314 23.9481 5.91022 24.1909 5.91022 24.4906V27.3843C5.91022 27.684 6.15314 27.9268 6.45277 27.9268H9.34639C9.64602 27.9268 9.88894 27.684 9.88894 27.3843V24.4906C9.88894 24.1909 9.64602 23.9481 9.34639 23.9481ZM8.80383 26.8417H6.99532V25.0332H8.80383V26.8417Z"
          fill="#000"/>
    <path d="M26.5281 20.3311H24.3579C24.0583 20.3311 23.8153 20.5739 23.8153 20.8736C23.8153 21.1733 24.0583 21.4162 24.3579 21.4162H26.5281C26.8277 21.4162 27.0707 21.1733 27.0707 20.8736C27.0707 20.5739 26.8277 20.3311 26.5281 20.3311Z"
          fill="#000"/>
    <path d="M22.1877 20.3311H11.5166C11.2169 20.3311 10.974 20.5739 10.974 20.8736C10.974 21.1733 11.2169 21.4162 11.5166 21.4162H22.1877C22.4874 21.4162 22.7303 21.1733 22.7303 20.8736C22.7303 20.5739 22.4873 20.3311 22.1877 20.3311Z"
          fill="#000"/>
    <path d="M26.5281 25.3949H24.3579C24.0583 25.3949 23.8153 25.6377 23.8153 25.9374C23.8153 26.2371 24.0583 26.48 24.3579 26.48H26.5281C26.8277 26.48 27.0707 26.2371 27.0707 25.9374C27.0707 25.6377 26.8277 25.3949 26.5281 25.3949Z"
          fill="#000"/>
    <path d="M22.1877 25.3949H11.5166C11.2169 25.3949 10.974 25.6377 10.974 25.9374C10.974 26.2371 11.2169 26.48 11.5166 26.48H22.1877C22.4874 26.48 22.7303 26.2371 22.7303 25.9374C22.7303 25.6377 22.4873 25.3949 22.1877 25.3949Z"
          fill="#000"/>
</svg>
