<svg width="225" height="225" viewBox="0 0 225 225" fill="none" xmlns="http://www.w3.org/2000/svg">
<path fill-rule="evenodd" clip-rule="evenodd" d="M112.5 0C174.53 0 225 50.4695 225 112.5C225 145.432 210.776 175.099 188.153 195.685L188.264 195.779L184.52 198.904C184.315 199.078 184.099 199.237 183.882 199.395C183.706 199.525 183.529 199.654 183.359 199.792C181.645 201.187 179.881 202.52 178.085 203.813C177.937 203.92 177.789 204.028 177.641 204.135C177.042 204.568 176.446 205 175.84 205.413C173.737 206.853 171.573 208.207 169.372 209.504C168.775 209.855 168.177 210.199 167.576 210.539C165.158 211.901 162.691 213.181 160.167 214.368C159.985 214.454 159.802 214.536 159.619 214.618C159.489 214.676 159.36 214.734 159.23 214.793C150.795 218.663 141.803 221.515 132.406 223.2C132.185 223.243 131.961 223.282 131.739 223.322L131.641 223.339C128.708 223.842 125.738 224.239 122.731 224.513C122.541 224.53 122.351 224.543 122.161 224.556C121.97 224.569 121.78 224.583 121.59 224.599C118.587 224.84 115.564 225 112.5 225C109.407 225 106.355 224.84 103.336 224.591C103.152 224.575 102.97 224.562 102.787 224.548C102.6 224.535 102.414 224.522 102.228 224.505C99.1964 224.231 96.2018 223.822 93.24 223.31C92.9868 223.266 92.7377 223.221 92.4887 223.176L92.4873 223.175C82.9473 221.453 73.8245 218.536 65.2786 214.564C65.1825 214.519 65.0853 214.476 64.9881 214.433C64.891 214.39 64.7938 214.347 64.6977 214.302C62.0755 213.067 59.5145 211.721 57.0068 210.293L57.0046 210.292C56.5022 210.006 55.9997 209.72 55.5014 209.426C53.2105 208.072 50.9686 206.644 48.7841 205.139C48.1091 204.672 47.4464 204.194 46.7836 203.715C44.7382 202.238 42.7295 200.712 40.7905 199.105C40.6767 199.01 40.5582 198.924 40.4396 198.837C40.3107 198.743 40.1817 198.648 40.0582 198.544L36.4091 195.468L36.5155 195.374C14.0891 174.796 0 145.264 0 112.5C0 50.4695 50.4695 0 112.5 0ZM112.5 8.18182C54.9777 8.18182 8.18182 54.9777 8.18182 112.5C8.18182 143.272 21.5836 170.967 42.8523 190.08C43.875 189.348 44.8977 188.693 45.9286 188.133L78.2755 170.489C81.2086 168.885 83.0291 165.817 83.0291 162.479V150.64C80.5091 147.31 73.6895 137.483 70.3759 124.503C66.915 121.668 64.8941 117.466 64.8941 112.962V98.46C64.8941 94.9132 66.1991 91.4727 68.5227 88.7686V69.6764C68.31 67.5532 67.5573 55.5709 76.2259 45.6873C83.7654 37.0841 95.9686 32.7273 112.5 32.7273C129.031 32.7273 141.235 37.0841 148.774 45.6914C157.443 55.575 156.69 67.5573 156.477 69.6805V88.7727C158.805 91.4768 160.106 94.9173 160.106 98.4641V112.966C160.106 118.796 156.76 123.959 151.576 126.421C148.954 134.002 145.358 141.046 140.875 147.379C139.999 148.61 139.152 149.731 138.35 150.721V162.818C138.35 166.291 140.281 169.417 143.39 170.971L178.028 188.288C179.268 188.91 180.479 189.655 181.681 190.485C203.216 171.364 216.818 143.497 216.818 112.5C216.818 54.9777 170.022 8.18182 112.5 8.18182Z" fill="#CC6600"/>
</svg>
