<svg xmlns="http://www.w3.org/2000/svg" width="30.49" height="34.358" viewBox="0 0 30.49 34.358">
  <g id="leather" opacity="0.5">
    <path id="Path_61" data-name="Path 61" d="M154.154,25.228a9.422,9.422,0,0,1-.433-13.506,1.242,1.242,0,0,0,.248-1.374,18.945,18.945,0,0,0-3.745-5.554,1.247,1.247,0,0,0-1.34-.3,4.29,4.29,0,0,1-1.547.286,4.284,4.284,0,0,1-4.224-3.51,1.243,1.243,0,0,0-.969-.986A14.594,14.594,0,0,0,136.7.227a1.24,1.24,0,0,0-1,1.006A4.276,4.276,0,0,1,133.253,4.4a.5.5,0,1,0,.418.916,5.283,5.283,0,0,0,3.021-3.91.229.229,0,0,1,.186-.186,13.574,13.574,0,0,1,5.065.057.228.228,0,0,1,.179.179,5.308,5.308,0,0,0,7.124,3.982.245.245,0,0,1,.258.061,17.944,17.944,0,0,1,3.545,5.26.24.24,0,0,1-.053.265,10.429,10.429,0,0,0,.478,14.948.233.233,0,0,1,.057.251A18.839,18.839,0,0,1,151.3,30.5a.236.236,0,0,1-.277.082,10.452,10.452,0,0,0-1.941-.521.5.5,0,1,0-.166.993,9.432,9.432,0,0,1,1.753.471,1.245,1.245,0,0,0,1.457-.447,19.868,19.868,0,0,0,2.355-4.511,1.232,1.232,0,0,0-.322-1.343Zm0,0" transform="translate(-124.065 -0.001)" fill="#fff"/>
    <path id="Path_62" data-name="Path 62" d="M23.345,90.159a10.415,10.415,0,0,0-7.214,3.3.4.4,0,0,1-.581,0A10.5,10.5,0,0,0,3.944,90.925a.153.153,0,0,1-.18-.053A18.754,18.754,0,0,1,1.524,86.7a.23.23,0,0,1,.062-.258,10.422,10.422,0,0,0,3.679-7.95,10.344,10.344,0,0,0-3.186-7.5.231.231,0,0,1-.048-.263,17.873,17.873,0,0,1,3.515-5.09.244.244,0,0,1,.272-.044,5.267,5.267,0,0,0,2.089.427.5.5,0,1,0,0-1.007,4.263,4.263,0,0,1-1.692-.345,1.246,1.246,0,0,0-1.384.259A18.876,18.876,0,0,0,1.118,70.3a1.237,1.237,0,0,0,.262,1.411,9.347,9.347,0,0,1,2.879,6.779A9.418,9.418,0,0,1,.934,85.677a1.237,1.237,0,0,0-.349,1.387,19.745,19.745,0,0,0,2.36,4.394,1.155,1.155,0,0,0,1.38.4,9.489,9.489,0,0,1,10.489,2.288,1.409,1.409,0,0,0,2.05,0,9.416,9.416,0,0,1,6.521-2.98.5.5,0,1,0-.04-1.005Zm0,0" transform="translate(-0.501 -60.228)" fill="#fff"/>
    <path id="Path_63" data-name="Path 63" d="M79.422,99.885c-.143-.025-.286-.056-.426-.09a.5.5,0,0,0-.243.977c.162.04.328.076.493.1a.5.5,0,0,0,.176-.992Zm0,0" transform="translate(-73.141 -93.084)" fill="#fff"/>
    <path id="Path_64" data-name="Path 64" d="M65.89,418.106a.506.506,0,0,0,.106-.011c.146-.031.3-.06.442-.086a.5.5,0,1,0-.173-.992c-.16.028-.322.059-.481.093a.5.5,0,0,0,.1,1Zm0,0" transform="translate(-61.03 -389.029)" fill="#fff"/>
    <path id="Path_65" data-name="Path 65" d="M88.5,262.681h.01a.5.5,0,0,0,.5-.494q0-.124,0-.248t0-.242a.5.5,0,0,0-.5-.494H88.5a.5.5,0,0,0-.494.513c0,.074,0,.148,0,.223s0,.152,0,.228A.5.5,0,0,0,88.5,262.681Zm0,0" transform="translate(-82.127 -243.675)" fill="#fff"/>
    <path id="Path_66" data-name="Path 66" d="M76.772,199.533c-.054-.154-.111-.308-.171-.459a.5.5,0,0,0-.937.37c.055.139.108.28.157.422a.5.5,0,0,0,.951-.332Zm0,0" transform="translate(-70.585 -185.417)" fill="#fff"/>
    <path id="Path_67" data-name="Path 67" d="M85.612,229.83a.5.5,0,0,0-.988.195c.029.147.055.3.079.444a.5.5,0,1,0,.995-.156C85.672,230.151,85.643,229.989,85.612,229.83Zm0,0" transform="translate(-78.966 -214.028)" fill="#fff"/>
    <path id="Path_68" data-name="Path 68" d="M240.27,32.985a.5.5,0,0,0-.413-.338l-.2-.024a.688.688,0,1,0,.7.6C240.326,33.146,240.3,33.065,240.27,32.985Zm0,0" transform="translate(-223.075 -30.429)" fill="#fff"/>
    <path id="Path_69" data-name="Path 69" d="M255.974,59.069a.5.5,0,1,0-.825.577c.1.137.2.273.3.4a.5.5,0,0,0,.784-.632C256.145,59.3,256.057,59.187,255.974,59.069Zm0,0" transform="translate(-237.965 -54.902)" fill="#fff"/>
    <path id="Path_70" data-name="Path 70" d="M97.612,415.366h.017c.131,0,.265-.007.4-.007h.057a.5.5,0,0,0,0-1.007h-.057c-.144,0-.29,0-.432.007a.5.5,0,0,0,.017,1.007Zm0,0" transform="translate(-90.621 -386.55)" fill="#fff"/>
    <path id="Path_71" data-name="Path 71" d="M76.468,325.189c.06-.152.118-.306.171-.459a.5.5,0,1,0-.951-.333c-.049.14-.1.282-.157.422a.5.5,0,1,0,.937.37Zm0,0" transform="translate(-70.46 -302.314)" fill="#fff"/>
    <path id="Path_72" data-name="Path 72" d="M85.538,294.149c.032-.159.061-.321.087-.482a.5.5,0,0,0-.995-.159c-.024.148-.051.3-.08.443a.5.5,0,0,0,.4.593.514.514,0,0,0,.1.01A.5.5,0,0,0,85.538,294.149Zm0,0" transform="translate(-78.897 -273.416)" fill="#fff"/>
    <path id="Path_73" data-name="Path 73" d="M256.448,432.009c-.147.07-.294.144-.438.219a.5.5,0,1,0,.468.892c.132-.07.268-.137.4-.2a.5.5,0,0,0-.433-.909Zm0,0" transform="translate(-238.602 -402.976)" fill="#fff"/>
    <path id="Path_74" data-name="Path 74" d="M141.942,92.916c-.131.062-.266.12-.4.173a.5.5,0,0,0,.369.937c.156-.061.311-.129.463-.2a.5.5,0,0,0-.431-.91Zm0,0" transform="translate(-131.773 -86.636)" fill="#fff"/>
    <path id="Path_75" data-name="Path 75" d="M169.219,76.229a.5.5,0,0,0,.319-.114c.13-.107.257-.218.379-.332a.5.5,0,0,0-.69-.734c-.1.1-.215.2-.328.287a.5.5,0,0,0,.319.893Zm0,0" transform="translate(-157.42 -69.882)" fill="#fff"/>
    <path id="Path_76" data-name="Path 76" d="M61.58,171.364a.5.5,0,1,0,.876-.5c-.08-.141-.164-.283-.25-.421a.5.5,0,0,0-.855.532C61.429,171.1,61.506,171.234,61.58,171.364Zm0,0" transform="translate(-57.193 -158.786)" fill="#fff"/>
    <path id="Path_77" data-name="Path 77" d="M110.118,102.48a.5.5,0,0,0,.5.471h.033c.167-.011.336-.028.5-.05a.5.5,0,0,0-.133-1c-.143.019-.289.033-.434.043A.5.5,0,0,0,110.118,102.48Zm0,0" transform="translate(-102.757 -95.06)" fill="#fff"/>
    <path id="Path_78" data-name="Path 78" d="M160.136,423.941a.5.5,0,0,0,.319.637c.141.047.284.1.424.151a.5.5,0,0,0,.355-.943c-.153-.057-.308-.113-.462-.164A.5.5,0,0,0,160.136,423.941Zm0,0" transform="translate(-149.393 -395.174)" fill="#fff"/>
    <path id="Path_79" data-name="Path 79" d="M129.025,416.651a.5.5,0,0,0,.426.571c.147.021.3.046.444.073a.509.509,0,0,0,.092.009.5.5,0,0,0,.091-1c-.161-.03-.323-.057-.483-.08A.5.5,0,0,0,129.025,416.651Zm0,0" transform="translate(-120.39 -388.293)" fill="#fff"/>
    <path id="Path_80" data-name="Path 80" d="M44.616,144.391a.5.5,0,0,0-.683.2l-.086.159a.5.5,0,0,0,.066.568q.093.106.183.214a.642.642,0,0,0,.519-1.144Zm0,0" transform="translate(-40.882 -134.644)" fill="#fff"/>
    <path id="Path_81" data-name="Path 81" d="M43.09,379.554a.5.5,0,0,0-.709.065c-.095.114-.194.229-.295.341a.5.5,0,1,0,.749.674c.109-.121.217-.246.321-.37A.5.5,0,0,0,43.09,379.554Zm0,0" transform="translate(-39.173 -353.976)" fill="#fff"/>
    <path id="Path_82" data-name="Path 82" d="M58.257,118.572a.5.5,0,0,0,.7-.132c.086-.126.174-.252.262-.372a.5.5,0,1,0-.815-.592c-.093.129-.187.262-.279.4A.5.5,0,0,0,58.257,118.572Zm0,0" transform="translate(-54.173 -109.399)" fill="#fff"/>
    <path id="Path_83" data-name="Path 83" d="M43.361,405.781a.5.5,0,0,0-.212.68c.075.143.152.286.23.425a.5.5,0,0,0,.879-.492c-.073-.131-.147-.266-.217-.4A.5.5,0,0,0,43.361,405.781Zm0,0" transform="translate(-40.231 -378.498)" fill="#fff"/>
    <path id="Path_84" data-name="Path 84" d="M61.385,354.488a.5.5,0,0,0,.694-.163c.086-.139.17-.281.25-.422a.5.5,0,0,0-.877-.5c-.073.13-.151.26-.23.387a.5.5,0,0,0,.163.693Zm0,0" transform="translate(-57.074 -329.454)" fill="#fff"/>
    <path id="Path_85" data-name="Path 85" d="M356.674,245.946c-.017.161-.031.325-.042.487a.5.5,0,0,0,.469.536h.034a.5.5,0,0,0,.5-.47c.01-.15.023-.3.039-.449a.5.5,0,0,0-1-.106Zm0,0" transform="translate(-332.718 -229.021)" fill="#fff"/>
    <path id="Path_86" data-name="Path 86" d="M361.731,214.506c-.046.156-.089.315-.128.473a.5.5,0,0,0,.366.611.518.518,0,0,0,.122.015.5.5,0,0,0,.488-.381c.036-.145.076-.291.117-.435a.5.5,0,0,0-.966-.283Zm0,0" transform="translate(-337.341 -199.773)" fill="#fff"/>
    <path id="Path_87" data-name="Path 87" d="M386.211,130.324a.5.5,0,0,0-.851.538c.081.128.161.259.238.389a.5.5,0,0,0,.866-.514c-.082-.138-.167-.277-.253-.413Zm0,0" transform="translate(-359.444 -121.36)" fill="#fff"/>
    <path id="Path_88" data-name="Path 88" d="M367.331,104.436a.5.5,0,1,0-.772.647c.1.115.193.233.287.353a.5.5,0,0,0,.791-.624C367.536,104.685,367.433,104.558,367.331,104.436Zm0,0" transform="translate(-341.869 -97.26)" fill="#fff"/>
    <path id="Path_89" data-name="Path 89" d="M388.328,158.612a.5.5,0,0,0,.415-.218c.085-.122.173-.246.263-.365a.5.5,0,0,0-.806-.6c-.1.13-.194.264-.286.4a.5.5,0,0,0,.414.79Zm0,0" transform="translate(-361.817 -146.672)" fill="#fff"/>
    <path id="Path_90" data-name="Path 90" d="M337.482,102.733c-.143.005-.291.006-.436,0a.5.5,0,0,0-.029,1.007q.109,0,.22,0c.1,0,.191,0,.284-.006a.5.5,0,0,0-.038-1.006Zm0,0" transform="translate(-313.964 -95.839)" fill="#fff"/>
    <path id="Path_91" data-name="Path 91" d="M349.844,415.144a.5.5,0,0,0-.458-.545c-.161-.014-.325-.025-.488-.033a.5.5,0,1,0-.048,1.006c.15.007.3.018.45.03l.044,0A.5.5,0,0,0,349.844,415.144Zm0,0" transform="translate(-325.011 -386.75)" fill="#fff"/>
    <path id="Path_92" data-name="Path 92" d="M278.317,82.173c-.121-.079-.241-.164-.356-.252a.5.5,0,0,0-.609.8c.133.1.272.2.412.291a.5.5,0,0,0,.553-.842Zm0,0" transform="translate(-258.577 -76.325)" fill="#fff"/>
    <path id="Path_93" data-name="Path 93" d="M286.057,420.822c-.157.043-.315.09-.469.139a.5.5,0,0,0,.3.96c.142-.045.288-.088.432-.128a.5.5,0,1,0-.267-.971Zm0,0" transform="translate(-266.117 -392.569)" fill="#fff"/>
    <path id="Path_94" data-name="Path 94" d="M317.362,415.088c-.162.015-.326.033-.487.054a.5.5,0,0,0,.065,1,.51.51,0,0,0,.066,0c.148-.019.3-.036.448-.05a.5.5,0,0,0-.091-1Zm0,0" transform="translate(-295.222 -387.235)" fill="#fff"/>
    <path id="Path_95" data-name="Path 95" d="M306.286,97.1c-.139-.038-.278-.082-.415-.131a.5.5,0,0,0-.335.95c.158.056.32.107.481.151a.5.5,0,0,0,.269-.971Zm0,0" transform="translate(-284.74 -90.433)" fill="#fff"/>
    <path id="Path_96" data-name="Path 96" d="M373.019,184.455a.5.5,0,0,0-.676.225c-.073.146-.144.295-.211.442a.5.5,0,1,0,.917.415c.061-.136.127-.273.194-.407A.5.5,0,0,0,373.019,184.455Zm0,0" transform="translate(-347.137 -172.028)" fill="#fff"/>
    <path id="Path_97" data-name="Path 97" d="M399.46,394.1a.5.5,0,0,0,.453-.283c.07-.143.139-.29.206-.437a.5.5,0,1,0-.917-.417c-.063.139-.129.278-.195.413a.5.5,0,0,0,.453.724Zm0,0" transform="translate(-372.201 -366.318)" fill="#fff"/>
    <path id="Path_98" data-name="Path 98" d="M189.691,437.27c.131.071.263.146.392.223a.5.5,0,0,0,.514-.866c-.14-.083-.283-.164-.425-.242a.5.5,0,1,0-.481.885Zm0,0" transform="translate(-176.741 -407.047)" fill="#fff"/>
    <path id="Path_99" data-name="Path 99" d="M190.923,49.812a.5.5,0,0,0-.684.2c-.07.127-.145.253-.223.374a.5.5,0,0,0,.847.546c.091-.14.177-.286.258-.433A.5.5,0,0,0,190.923,49.812Zm0,0" transform="translate(-177.215 -46.409)" fill="#fff"/>
    <path id="Path_100" data-name="Path 100" d="M381.121,419.045c-.157-.043-.317-.083-.475-.119a.5.5,0,0,0-.226.982c.145.033.292.07.437.109a.5.5,0,0,0,.132.018.5.5,0,0,0,.131-.99Zm0,0" transform="translate(-354.545 -390.805)" fill="#fff"/>
    <path id="Path_101" data-name="Path 101" d="M208.1,31.588c-.163,0-.328.013-.489.024a.5.5,0,0,0,.034,1.006h.035c.148-.01.3-.018.45-.022a.5.5,0,1,0-.03-1.007Zm0,0" transform="translate(-193.271 -29.467)" fill="#fff"/>
    <path id="Path_102" data-name="Path 102" d="M217.108,448.586a.5.5,0,0,0-.148.186l-.089-.072a.5.5,0,1,0-.629.786c.117.094.233.19.346.288a.5.5,0,0,0,.825-.287h0a.5.5,0,0,0,.309-.106c.118-.092.24-.182.361-.269a.5.5,0,1,0-.587-.819c-.132.094-.264.193-.392.292Zm0,0" transform="translate(-201.579 -418.125)" fill="#fff"/>
    <path id="Path_103" data-name="Path 103" d="M389.16,367.134a.5.5,0,0,0-.828.573c.092.133.188.266.286.4a.5.5,0,0,0,.805-.6C389.333,367.379,389.245,367.256,389.16,367.134Zm0,0" transform="translate(-362.206 -342.295)" fill="#fff"/>
    <path id="Path_104" data-name="Path 104" d="M357.289,278.922a.5.5,0,0,0,.445-.556c-.016-.148-.03-.3-.041-.449a.5.5,0,0,0-1,.072c.012.162.026.327.045.488a.5.5,0,0,0,.556.445Zm0,0" transform="translate(-332.77 -258.831)" fill="#fff"/>
    <path id="Path_105" data-name="Path 105" d="M361.965,310.092a.5.5,0,1,0,.966-.287c-.042-.143-.083-.289-.12-.434a.5.5,0,0,0-.976.25C361.874,309.778,361.918,309.937,361.965,310.092Zm0,0" transform="translate(-337.557 -288.257)" fill="#fff"/>
    <path id="Path_106" data-name="Path 106" d="M373.414,339.423a.5.5,0,1,0-.916.418c.067.147.138.3.212.441a.5.5,0,0,0,.9-.453C373.541,339.7,373.476,339.559,373.414,339.423Zm0,0" transform="translate(-347.476 -316.371)" fill="#fff"/>
  </g>
</svg>
