<svg height="468pt" viewBox="0 -95 468.23947 468" width="468pt" xmlns="http://www.w3.org/2000/svg">
    <path d="m372.585938 100.230469-93.847657-8.707031-37.277343-86.566407c-1.265626-2.9375-4.152344-4.835937-7.347657-4.835937-3.199219 0-6.085937 1.898437-7.351562 4.835937l-37.277344 86.566407-93.847656 8.707031c-3.183594.296875-5.886719 2.457031-6.875 5.496093-.984375 3.039063-.070313 6.371094 2.328125 8.480469l70.800781 62.207031-20.710937 91.949219c-.707032 3.121094.515624 6.359375 3.101562 8.238281 2.585938 1.878907 6.042969 2.035157 8.789062.402344l81.042969-48.125 81.042969 48.121094c2.746094 1.632812 6.203125 1.476562 8.789062-.402344 2.585938-1.878906 3.808594-5.117187 3.101563-8.238281l-20.726563-91.941406 70.800782-62.207031c2.398437-2.109376 3.3125-5.441407 2.324218-8.480469-.984374-3.039063-3.6875-5.199219-6.871093-5.492188zm-80.394532 67.292969c-2.199218 1.933593-3.167968 4.914062-2.523437 7.769531l17.683593 78.46875-69.15625-41.066407c-2.519531-1.496093-5.652343-1.496093-8.171874 0l-69.152344 41.066407 17.683594-78.460938c.648437-2.859375-.320313-5.84375-2.523438-7.777343l-60.425781-53.070313 80.085937-7.429687c2.914063-.269532 5.449219-2.109376 6.609375-4.800782l31.8125-73.871094 31.808594 73.867188c1.160156 2.691406 3.695313 4.53125 6.609375 4.800781l80.085938 7.429688zm0 0"/>
    <path d="m70.074219 144.027344c-3.195313 0-6.082031 1.902344-7.347657 4.835937l-15.769531 36.621094-39.710937 3.679687c-3.171875.300782-5.867188 2.457032-6.851563 5.488282-.988281 3.03125-.082031 6.359375 2.308594 8.472656l29.960937 26.320312-8.765624 38.917969c-.703126 3.117188.519531 6.355469 3.105468 8.234375 2.585938 1.878906 6.039063 2.035156 8.789063.402344l34.28125-20.359375 34.285156 20.359375c2.746094 1.632812 6.203125 1.476562 8.792969-.402344 2.585937-1.878906 3.804687-5.117187 3.097656-8.238281l-8.765625-38.898437 29.960937-26.335938c2.382813-2.109375 3.292969-5.433594 2.308594-8.464844-.984375-3.027344-3.671875-5.1875-6.84375-5.492187l-39.707031-3.679688-15.769531-36.625c-1.265625-2.9375-4.160156-4.839843-7.359375-4.835937zm16.914062 56.953125 25.933594 2.398437-19.570313 17.203125c-2.199218 1.929688-3.167968 4.910157-2.523437 7.765625l5.726563 25.414063-22.398438-13.300781c-2.519531-1.496094-5.65625-1.496094-8.171875 0l-22.402344 13.300781 5.730469-25.417969c.640625-2.855469-.324219-5.835938-2.523438-7.765625l-19.574218-17.203125 25.9375-2.398438c2.914062-.269531 5.449218-2.113281 6.605468-4.800781l10.304688-23.921875 10.300781 23.921875c1.160157 2.695313 3.703125 4.539063 6.625 4.804688zm0 0"/>
    <path d="m467.847656 194.660156c-.988281-3.039062-3.6875-5.203125-6.871094-5.496094l-39.710937-3.679687-15.769531-36.625c-1.265625-2.933594-4.152344-4.835937-7.347656-4.835937-3.195313 0-6.085938 1.902343-7.347657 4.835937l-15.773437 36.625-39.707032 3.679687c-3.175781.300782-5.867187 2.457032-6.851562 5.492188-.988281 3.03125-.078125 6.359375 2.3125 8.46875l29.957031 26.320312-8.765625 38.917969c-.707031 3.121094.511719 6.359375 3.097656 8.238281 2.589844 1.878907 6.046876 2.035157 8.792969.402344l34.285157-20.359375 34.28125 20.359375c2.75 1.632813 6.203124 1.476563 8.789062-.402344 2.585938-1.878906 3.808594-5.117187 3.105469-8.234374l-8.765625-38.902344 29.960937-26.320313c2.402344-2.109375 3.316407-5.445312 2.328125-8.484375zm-46.398437 25.917969c-2.203125 1.929687-3.167969 4.910156-2.527344 7.765625l5.730469 25.417969-22.402344-13.300781c-2.515625-1.496094-5.652344-1.496094-8.171875 0l-22.398437 13.300781 5.726562-25.414063c.644531-2.855468-.324219-5.835937-2.523438-7.765625l-19.570312-17.203125 25.933594-2.398437c2.917968-.269531 5.449218-2.113281 6.609375-4.800781l10.300781-23.921876 10.304688 23.921876c1.15625 2.6875 3.691406 4.53125 6.605468 4.800781l25.9375 2.398437zm0 0"/>
</svg>