<svg xmlns="http://www.w3.org/2000/svg" width="25.031" height="25.031" viewBox="0 0 25.031 25.031">
    <g id="tag" transform="translate(-0.082 0)">
        <path id="Path_141" data-name="Path 141"
              d="M24.437.05,14.237,0h-.006a.647.647,0,0,0-.444.181L.971,13a3.052,3.052,0,0,0,0,4.305L7.8,24.142a3.052,3.052,0,0,0,4.305,0L24.931,11.32a.631.631,0,0,0,.182-.444l-.05-10.2A.636.636,0,0,0,24.437.05Zm-13.216,23.2a1.783,1.783,0,0,1-2.528,0L1.859,16.42a1.783,1.783,0,0,1,0-2.528L14.494,1.252l9.317.05.05,9.317Zm0,0"
              transform="translate(0)"
              fill="#019A7C"/>
        <path id="Path_142" data-name="Path 142"
              d="M294.374,86.906a3.363,3.363,0,1,0,2.386.985A3.364,3.364,0,0,0,294.374,86.906Zm1.4,4.773a1.976,1.976,0,1,1,.583-1.4A1.976,1.976,0,0,1,295.775,91.679Zm0,0"
              transform="translate(-276.842 -82.696)"
              fill="#019A7C"/>
    </g>
</svg>
