<?xml version="1.0" encoding="iso-8859-1"?>
<!-- Generator: Adobe Illustrator 19.0.0, SVG Export Plug-In . SVG Version: 6.00 Build 0)  -->
<svg version="1.1" id="Capa_1" xmlns="http://www.w3.org/2000/svg" x="0px" y="0px"
     viewBox="0 0 416 416" style="enable-background:new 0 0 416 416;" xml:space="preserve">
<g>
	<g>
		<path d="M86.8,126.081c-4.441-4.454-10.471-6.958-16.76-6.96H57.08c-13.068,0.13-23.63,10.692-23.76,23.76
			c0.013,6.275,2.516,12.289,6.96,16.72l0,0.04c4.441,4.454,10.471,6.958,16.76,6.96H70c13.068-0.13,23.63-10.692,23.76-23.76
			C93.758,136.552,91.254,130.522,86.8,126.081z M70,151.441H57.08c-2.263,0.008-4.436-0.884-6.04-2.48
			c-1.596-1.604-2.488-3.777-2.48-6.04l-0.04-0.04c0.022-4.718,3.842-8.538,8.56-8.56H70c4.728,0,8.56,3.832,8.56,8.56
			C78.538,147.599,74.718,151.419,70,151.441z"/>
	</g>
</g>
    <g>
	<g>
		<path d="M208.002,153.641c-37.334,0-67.6,30.265-67.601,67.599c0,17.929,7.122,35.123,19.799,47.801
			c12.662,12.7,29.866,19.826,47.8,19.8c37.334,0,67.6-30.265,67.601-67.599C275.601,183.907,245.336,153.641,208.002,153.641z
			 M245.04,258.331c-20.47,20.457-53.648,20.445-74.105-0.025c-9.825-9.832-15.342-23.165-15.335-37.065
			c-0.011-13.898,5.517-27.228,15.36-37.04v0c20.47-20.457,53.648-20.446,74.105,0.025
			C265.521,204.696,265.51,237.874,245.04,258.331z"/>
	</g>
</g>
    <g>
	<g>
		<path d="M207.961,123.601c-53.947,0.011-97.671,43.752-97.66,97.7c0.005,25.904,10.3,50.746,28.62,69.06
			c18.305,18.344,43.166,28.636,69.08,28.6c53.947-0.011,97.671-43.752,97.66-97.7C305.65,167.314,261.908,123.59,207.961,123.601z
			 M266.72,279.322c-32.132,32.32-84.381,32.472-116.7,0.339c-15.545-15.455-24.302-36.46-24.339-58.38
			c-0.078-21.871,8.558-42.872,24-58.36v0.04c32.132-32.32,84.381-32.472,116.7-0.339C298.7,194.754,298.852,247.002,266.72,279.322
			z"/>
	</g>
</g>
    <g>
	<g>
		<path d="M408.4,94.361c-4.843-4.86-11.419-7.594-18.28-7.6H291.8l-3.44-17.72c-0.763-4.302-2.781-8.282-5.8-11.44
			c-3.147-3.234-7.488-5.028-12-4.96H145.32c-4.204-0.033-8.259,1.557-11.32,4.44l-0.56,0.48c-3.019,3.158-5.037,7.138-5.8,11.44
			l-3.44,17.72H25.76C11.526,86.852,0.043,98.406,0,112.641v224.84c0.006,6.861,2.74,13.437,7.6,18.28H7.44
			c4.843,4.86,11.419,7.594,18.28,7.6H390.2c14.235-0.109,25.735-11.645,25.8-25.88v-224.84
			C415.994,105.78,413.26,99.204,408.4,94.361z M400.88,337.481c-0.022,5.911-4.809,10.698-10.72,10.72H25.76
			c-2.834,0.004-5.554-1.118-7.56-3.12c-2.002-2.006-3.124-4.726-3.12-7.56l-0.04-224.88c0.022-5.911,4.809-10.698,10.72-10.72
			h104.68c3.806-0.007,7.019-2.828,7.52-6.6l4.6-23.32c0.194-1.319,0.764-2.555,1.64-3.56c0.276-0.21,0.613-0.323,0.96-0.32h125.52
			c0.422,0.006,0.825,0.179,1.12,0.48c0.876,1.005,1.446,2.241,1.64,3.56l4.64,24c0.688,3.568,3.806,6.149,7.44,6.16H390.2
			c2.834-0.004,5.554,1.118,7.56,3.12c2.002,2.006,3.124,4.726,3.12,7.56V337.481z"/>
	</g>
</g>
    <g>
</g>
    <g>
</g>
    <g>
</g>
    <g>
</g>
    <g>
</g>
    <g>
</g>
    <g>
</g>
    <g>
</g>
    <g>
</g>
    <g>
</g>
    <g>
</g>
    <g>
</g>
    <g>
</g>
    <g>
</g>
    <g>
</g>
</svg>
