<svg xmlns="http://www.w3.org/2000/svg" width="40" height="58" viewBox="0 0 40 58">
    <g id="locked--primary" transform="translate(-9)">
        <path id="Path_1" data-name="Path 1" d="M29,30a4,4,0,0,0-4,4v6a4,4,0,0,0,8,0V34A4,4,0,0,0,29,30Zm2,10a2,2,0,0,1-4,0V34a2,2,0,0,1,4,0Z" fill="#cc6600"/>
        <path id="Path_2" data-name="Path 2"
              d="M40,21.314V10.22C40,4.585,35.065,0,29,0S18,4.585,18,10.22V21.314a20,20,0,1,0,22,0ZM20,20.157V10.22C20,5.688,24.037,2,29,2s9,3.688,9,8.22v9.938c-.188-.095-.38-.179-.57-.268q-.59-.276-1.2-.515-.392-.153-.787-.289c-.26-.089-.518-.178-.782-.256-.437-.13-.879-.241-1.324-.341q-.29-.064-.582-.122c-.523-.1-1.049-.183-1.579-.242-.12-.013-.24-.021-.36-.032C30.213,18.036,29.608,18,29,18s-1.213.036-1.816.092c-.12.011-.241.019-.36.032-.53.059-1.056.141-1.579.242-.195.037-.389.079-.582.122-.445.1-.887.211-1.324.341-.264.078-.523.168-.782.256s-.527.187-.787.289c-.407.158-.805.331-1.2.515C20.38,19.978,20.188,20.062,20,20.157ZM29,56a18,18,0,0,1-6.384-34.809c.176-.067.353-.133.531-.195.273-.095.547-.186.824-.268q.51-.149,1.033-.266c.254-.058.509-.109.765-.156.369-.067.741-.127,1.118-.171.17-.021.341-.039.512-.054C27.928,20.034,28.46,20,29,20s1.072.034,1.6.081c.171.016.341.034.512.054.377.044.749.1,1.118.171.256.047.511.1.765.156q.522.119,1.033.266c.277.081.551.173.824.268.179.062.355.128.531.195A17.988,17.988,0,0,1,29,56Z"
              fill="#cc6600"/>
    </g>
</svg>
