<svg xmlns="http://www.w3.org/2000/svg" width="14.25" height="19" viewBox="0 0 14.25 19">
    <g id="hair-spray" transform="translate(0 0.003)" fill="#fff" opacity=".5">
        <path id="Path_261" data-name="Path 261"
              d="M10.133,48.958V48.61a.776.776,0,0,0-.775-.777H9.183V37.383h.175a.776.776,0,0,0,.775-.775V36.26a.776.776,0,0,0-.775-.777H8.867v-.066a2.153,2.153,0,0,0-2.151-2.151H6.333v-.95A.317.317,0,0,0,6.017,32h-1.9a.317.317,0,0,0-.317.317v.95H3.418a2.153,2.153,0,0,0-2.151,2.151v.066H.775A.776.776,0,0,0,0,36.259v.348a.776.776,0,0,0,.775.776H.95v10.45H.775A.776.776,0,0,0,0,48.609v.348a.776.776,0,0,0,.775.776H9.357a.776.776,0,0,0,.776-.775Zm-5.7-16.325H5.7v.633H4.433ZM1.9,35.418A1.52,1.52,0,0,1,3.418,33.9h3.3a1.52,1.52,0,0,1,1.518,1.518v.066H1.9ZM.633,36.608V36.26a.143.143,0,0,1,.142-.143H9.357a.142.142,0,0,1,.142.142v.348a.142.142,0,0,1-.142.142H.775A.142.142,0,0,1,.633,36.608Zm.95,2.5a3.735,3.735,0,0,1,0,7.442Zm0,8.073a4.363,4.363,0,0,0,0-8.7v-1.1H8.55v10.45H1.583Zm-.95,1.773v-.348a.142.142,0,0,1,.142-.141H9.357a.142.142,0,0,1,.142.142v.348a.142.142,0,0,1-.142.142H.775a.142.142,0,0,1-.142-.141Zm0,0"
              transform="translate(0 -30.736)"/>
        <path id="Path_262" data-name="Path 262" d="M184.317,224a.317.317,0,0,0-.317.317v6.967a.317.317,0,0,0,.633,0v-6.967A.317.317,0,0,0,184.317,224Zm0,0" transform="translate(-176.717 -215.136)"/>
        <path id="Path_263" data-name="Path 263" d="M184.317,184a.317.317,0,0,0-.317.317v.317a.317.317,0,0,0,.633,0v-.317A.317.317,0,0,0,184.317,184Zm0,0" transform="translate(-176.717 -176.719)"/>
        <path id="Path_264" data-name="Path 264" d="M259.8,48h-3.483a.317.317,0,0,0,0,.633H259.8a.317.317,0,1,0,0-.633Zm0,0" transform="translate(-245.867 -46.103)"/>
        <path id="Path_265" data-name="Path 265" d="M256,1.011a.317.317,0,0,0,.31.253.291.291,0,0,0,.063-.006l3.167-.633A.317.317,0,0,0,259.417,0l-3.167.633a.317.317,0,0,0-.247.374Zm0,0"
              transform="translate(-245.864 0)"/>
        <path id="Path_266" data-name="Path 266" d="M259.257,80.972l-2.85-.95a.317.317,0,0,0-.2.6l2.85.95a.317.317,0,1,0,.2-.6Zm0,0" transform="translate(-245.857 -76.841)"/>
        <path id="Path_267" data-name="Path 267" d="M208.317,48a.317.317,0,1,0,0,.633h.633a.317.317,0,1,0,0-.633Zm0,0" transform="translate(-199.767 -46.103)"/>
    </g>
</svg>
