<svg width="30" height="30" viewBox="0 0 30 30" fill="none" xmlns="http://www.w3.org/2000/svg">
<path d="M20.8289 23.4029H23.6942C26.8233 23.4029 29.36 20.8662 29.36 17.7372C29.36 14.608 26.8233 12.0713 23.6942 12.0713C23.5004 12.0713 23.3089 12.0813 23.1201 12.1003C23.1331 11.9174 23.1479 11.7349 23.1479 11.5488C23.1479 7.2673 19.677 3.79639 15.3955 3.79639C11.4727 3.79639 8.23889 6.71283 7.72309 10.4941C7.52095 10.4751 7.31669 10.4632 7.10956 10.4632C3.53634 10.4632 0.639648 13.3598 0.639648 16.9331C0.639648 20.5064 3.53634 23.403 7.10956 23.403H9.71897" fill="#fff"/>
<path d="M23.7871 11.4324C23.7244 6.85857 19.9842 3.15674 15.3957 3.15674C13.3546 3.15674 11.3881 3.89924 9.85873 5.24748C8.49373 6.4507 7.55999 8.05862 7.1902 9.82399C7.16319 9.8237 7.13641 9.82346 7.10969 9.82346C3.18949 9.82346 0 13.0129 0 16.9332C0 20.8534 3.18949 24.0429 7.10975 24.0429H12.0752C12.4284 24.0429 12.7149 23.7564 12.7149 23.4031C12.7149 23.0497 12.4284 22.7633 12.0752 22.7633H7.10975C3.89495 22.7633 1.27957 20.1479 1.27957 16.9332C1.27957 13.7184 3.89495 11.103 7.10975 11.103C7.28102 11.103 7.46208 11.1122 7.66334 11.1312C8.00448 11.1631 8.31075 10.9205 8.35721 10.5806C8.5876 8.89194 9.42133 7.3388 10.7049 6.2073C12.0004 5.06519 13.6663 4.43625 15.3957 4.43625C19.3176 4.43625 22.5083 7.62696 22.5083 11.5489C22.5083 11.6901 22.4978 11.8356 22.4867 11.9897L22.482 12.0552C22.4687 12.2434 22.5391 12.428 22.6746 12.5594C22.8099 12.6908 22.9961 12.7557 23.1842 12.7369C23.3543 12.7197 23.526 12.7111 23.6944 12.7111C26.4657 12.7111 28.7204 14.9658 28.7204 17.7372C28.7204 20.5085 26.4658 22.7632 23.6944 22.7632H18.473C18.1198 22.7632 17.8333 23.0496 17.8333 23.403C17.8333 23.7563 18.1198 24.0427 18.473 24.0427H23.6944C27.1713 24.0427 30 21.2141 30 17.7372C29.9999 14.2915 27.2214 11.4822 23.7871 11.4324Z" fill="#cc6600"/>
<path d="M15.3959 7.44339C15.7493 7.44339 16.0357 7.15698 16.0357 6.8036C16.0357 6.45022 15.7493 6.16382 15.3959 6.16382C12.7206 6.16382 10.4306 8.16309 10.0689 10.8142C10.0212 11.1643 10.2663 11.4869 10.6164 11.5346C10.6457 11.5386 10.6749 11.5406 10.7036 11.5406C11.0186 11.5406 11.293 11.308 11.3367 10.9872C11.6122 8.96694 13.3573 7.44339 15.3959 7.44339Z" fill="#cc6600"/>
<path d="M17.8786 19.8701C18.0545 19.8701 18.2296 19.7981 18.3561 19.6565C18.5914 19.3929 18.5686 18.9886 18.3051 18.7531L15.9779 16.6742C15.5767 16.3156 14.9715 16.3157 14.5701 16.6741L12.2429 18.7532C11.9793 18.9885 11.9566 19.393 12.192 19.6566C12.4273 19.92 12.8317 19.9429 13.0954 19.7075L14.6343 18.3328V26.2037C14.6343 26.5571 14.9207 26.8435 15.274 26.8435C15.6274 26.8435 15.9138 26.5571 15.9138 26.2037V18.3327L17.4528 19.7075C17.5747 19.8165 17.7269 19.8701 17.8786 19.8701Z" fill="#cc6600"/>
</svg>
