<svg width="28" height="28" viewBox="0 0 28 28" fill="none" xmlns="http://www.w3.org/2000/svg">
    <path d="M13.9997 0C6.28033 0 0 6.2804 0 14C0 21.7195 6.28033 28 13.9997 28C21.7197 28 28 21.7195 28 14C28 6.2804 21.7197 0 13.9997 0Z" fill="#cc6600"/>
    <path d="M13.9997 6.39673C11.5374 6.39673 9.53448 8.39985 9.53448 10.8622C9.53448 11.3692 9.94546 11.7803 10.4524 11.7803C10.9596 11.7803 11.3706 11.3692 11.3706 10.8622C11.3706 9.41254 12.5499 8.2329 13.9997 8.2329C15.45 8.2329 16.6293 9.41254 16.6293 10.8622C16.6293 12.3122 15.4499 13.4919 13.9997 13.4919C13.4928 13.4919 13.0818 13.903 13.0818 14.4098V17.6077C13.0818 18.1147 13.4928 18.5258 13.9997 18.5258C14.5067 18.5258 14.9179 18.1147 14.9179 17.6077V15.232C16.9413 14.8076 18.4655 13.0098 18.4655 10.8622C18.4655 8.39985 16.4623 6.39673 13.9997 6.39673Z"
          fill="white"/>
    <path d="M14.0003 19.1617C13.3642 19.1617 12.8477 19.6776 12.8477 20.314C12.8477 20.9504 13.3642 21.4665 14.0003 21.4665C14.6368 21.4665 15.1523 20.9504 15.1523 20.314C15.1523 19.6776 14.6368 19.1617 14.0003 19.1617Z"
          fill="white"/>
</svg>
