<svg width="73" height="74" viewBox="0 0 73 74" fill="none" xmlns="http://www.w3.org/2000/svg">
    <path d="M72.1647 0.8467C71.0511 -0.282233 69.2456 -0.282233 68.1321 0.8467L60.2139 8.87338C53.6069 3.13492 45.2772 3.61474e-05 36.5 3.61474e-05C26.7505 3.61474e-05 17.5846 3.84861 10.6905 10.837C3.79646 17.8254 3.56589e-05 27.117 3.56589e-05 37C3.56589e-05 45.9059 3.08984 54.3438 8.75204 61.0402L0.835257 69.0654C-0.278419 70.1943 -0.278419 72.0245 0.835257 73.1533C1.39202 73.7177 2.12174 74 2.8516 74C3.58145 74 4.31117 73.7177 4.86793 73.1533L72.1647 4.93462C73.2784 3.80583 73.2784 1.97549 72.1647 0.8467ZM5.70316 37C5.70316 19.7859 19.5185 5.78128 36.5 5.78128C43.7555 5.78128 50.6482 8.32026 56.1668 12.9759L12.8004 56.9364C8.20683 51.343 5.70316 44.3616 5.70316 37ZM69.4965 21.1637C71.8213 26.1332 73 31.4611 73 37C73 44.3033 70.8614 51.406 66.8158 57.5402C66.266 58.3739 65.3628 58.8245 64.4426 58.8245C63.8978 58.8245 63.3471 58.6667 62.8602 58.3367C61.551 57.4494 61.1992 55.6542 62.0745 54.3271C65.4911 49.147 67.2968 43.1555 67.2968 37C67.2968 32.3247 66.3032 27.8301 64.3435 23.641C63.6687 22.1986 64.2752 20.4746 65.6981 19.7905C67.1213 19.1062 68.8217 19.7213 69.4965 21.1637ZM56.3477 64.6978C57.1637 66.0632 56.7331 67.8408 55.386 68.6678C49.7051 72.1562 43.1745 74 36.5 74C31.1549 74 26.003 72.8546 21.1873 70.5956C19.7581 69.9251 19.1356 68.207 19.797 66.7583C20.4584 65.3095 22.1532 64.6787 23.5824 65.3489C27.6421 67.2531 31.9881 68.2188 36.5 68.2188C42.1325 68.2188 47.6415 66.6642 52.4314 63.723C53.7782 62.8957 55.5317 63.3322 56.3477 64.6978Z"
          fill="#A1A1A1"/>
</svg>
