<svg xmlns="http://www.w3.org/2000/svg" width="25.286" height="23.991" viewBox="0 0 25.286 23.991">
    <g id="shopping-cart" transform="translate(0 0)">
        <g id="Group_60" data-name="Group 60" transform="translate(0 0)">
            <g id="Group_59" data-name="Group 59" transform="translate(0 0)">
                <path id="Path_34" data-name="Path 34"
                      d="M7.746,29.724h14.9l2.637-9.309H21.406l-1.393-4.257L14.2,18.021,15,20.414h-.274l-1.435-4.257L7.478,18.021l.795,2.394H5.166l-.645-2.552a2.856,2.856,0,0,0-2.745-2.179H0V16.75H1.775A1.778,1.778,0,0,1,3.5,18.082L6.353,29.127a2.3,2.3,0,0,0-.975,1.883,2.379,2.379,0,0,0,2.369,2.343H22.273V32.286H7.746a1.281,1.281,0,1,1,0-2.562Zm11.57-12.239.97,2.873h-4.2L15.5,18.71Zm-6.724,0,.97,2.873h-4.2L8.773,18.71Zm11.3,3.94-2.044,7.237H7.318L5.434,21.425Z"
                      transform="translate(0 -15.683)" fill="#cc6600"/>
                <path id="Path_35" data-name="Path 35"
                      d="M372.35,487.171a2.333,2.333,0,1,0,0,4.665,2.312,2.312,0,0,0,2.333-2.333A2.346,2.346,0,0,0,372.35,487.171Zm0,3.611a1.278,1.278,0,1,1,0-2.556,1.255,1.255,0,0,1,1.278,1.278A1.292,1.292,0,0,1,372.35,490.782Z"
                      transform="translate(-354.843 -467.845)" fill="#cc6600"/>
                <path id="Path_36" data-name="Path 36"
                      d="M171.659,487.171a2.333,2.333,0,1,0,2.333,2.333A2.346,2.346,0,0,0,171.659,487.171Zm0,3.611a1.278,1.278,0,1,1,1.278-1.278A1.292,1.292,0,0,1,171.659,490.782Z"
                      transform="translate(-162.382 -467.845)" fill="#cc6600"/>
            </g>
        </g>
    </g>
</svg>
