<svg xmlns="http://www.w3.org/2000/svg" width="19" height="19" viewBox="0 0 19 19" fill="#212121">
    <path id="puzzle"
          d="M18.017,0H.983A.983.983,0,0,0,0,.983V18.017A.983.983,0,0,0,.983,19H18.017A.983.983,0,0,0,19,18.017V.983A.983.983,0,0,0,18.017,0Zm.328.983v8.19H15.3a.328.328,0,0,0-.262.524A1.851,1.851,0,0,1,15.4,10.81a1.5,1.5,0,0,1-1.31,1.638,1.5,1.5,0,0,1-1.31-1.638A1.85,1.85,0,0,1,13.129,9.7a.328.328,0,0,0-.262-.524H9.828V6.69a2.615,2.615,0,0,0,.983.189A2.151,2.151,0,0,0,13.1,4.914,2.151,2.151,0,0,0,10.81,2.948a2.615,2.615,0,0,0-.983.189V.655h8.19a.328.328,0,0,1,.328.328ZM.655.983A.328.328,0,0,1,.983.655h8.19V3.7a.328.328,0,0,0,.524.262A1.854,1.854,0,0,1,10.81,3.6a1.5,1.5,0,0,1,1.638,1.31,1.5,1.5,0,0,1-1.638,1.31A1.854,1.854,0,0,1,9.7,5.871a.328.328,0,0,0-.524.262V9.172H6.69a2.615,2.615,0,0,0,.189-.983A2.151,2.151,0,0,0,4.914,5.9,2.151,2.151,0,0,0,2.948,8.19a2.615,2.615,0,0,0,.189.983H.655Zm0,17.034V9.828H3.7A.328.328,0,0,0,3.957,9.3,1.851,1.851,0,0,1,3.6,8.19a1.5,1.5,0,0,1,1.31-1.638A1.5,1.5,0,0,1,6.224,8.19,1.85,1.85,0,0,1,5.871,9.3a.328.328,0,0,0,.262.524H9.172V12.31a2.615,2.615,0,0,0-.983-.189A2.151,2.151,0,0,0,5.9,14.086,2.151,2.151,0,0,0,8.19,16.052a2.615,2.615,0,0,0,.983-.189v2.482H.983a.328.328,0,0,1-.328-.328Zm17.69,0a.328.328,0,0,1-.328.328H9.828V15.3a.328.328,0,0,0-.524-.262A1.854,1.854,0,0,1,8.19,15.4a1.5,1.5,0,0,1-1.638-1.31,1.5,1.5,0,0,1,1.638-1.31,1.854,1.854,0,0,1,1.114.353.328.328,0,0,0,.524-.262V9.828H12.31a2.615,2.615,0,0,0-.189.983A2.151,2.151,0,0,0,14.086,13.1a2.151,2.151,0,0,0,1.966-2.293,2.615,2.615,0,0,0-.189-.983h2.482Zm0,0"/>
</svg>
