<svg xmlns="http://www.w3.org/2000/svg" width="19" height="19" viewBox="0 0 19 19">
    <g id="sword" transform="translate(-0.001 0)" fill="#fff" opacity=".5">
        <g id="Group_1012" data-name="Group 1012" transform="translate(0.001 0)">
            <g id="Group_1011" data-name="Group 1011" transform="translate(0 0)">
                <path id="Path_274" data-name="Path 274"
                      d="M18.885.116A.4.4,0,0,0,18.516.01l-2.91.67a.4.4,0,0,0-.191.106L5.5,10.7,4.383,9.58a.4.4,0,0,0-.56,0l-.84.84a.4.4,0,0,0,0,.56l1.679,1.68L1.485,15.837a1.584,1.584,0,1,0,1.679,1.68l1.78-1.78h0l1.119-1.119.28-.279,1.679,1.679a.4.4,0,0,0,.56,0l.84-.84a.4.4,0,0,0,0-.56L8.3,13.5l9.913-9.913a.4.4,0,0,0,.106-.191l.67-2.91A.394.394,0,0,0,18.885.116ZM2.144,17.976a.791.791,0,1,1,0-1.119A.786.786,0,0,1,2.144,17.976Zm.8-1.364a1.592,1.592,0,0,0-.56-.56l.2-.2h1.12ZM4.5,15.062H3.38l.328-.328H4.827Zm1.12-1.12H4.5l.724-.724.56.56Zm2.963.956-.28.28L6.622,13.5l-2.8-2.8.28-.28,1.12,1.12,2.239,2.239h0ZM17.575,3.106,7.742,12.939l-.56-.56,6.891-6.891a.4.4,0,0,0-.56-.56L6.622,11.819l-.56-.56L15.9,1.427l2.182-.5Z"
                      transform="translate(-0.001 0)"/>
            </g>
        </g>
        <g id="Group_1014" data-name="Group 1014" transform="translate(1.188 17.021)">
            <g id="Group_1013" data-name="Group 1013">
                <path id="Path_275" data-name="Path 275" d="M32.4,458.646a.4.4,0,1,0,.4.4A.4.4,0,0,0,32.4,458.646Z" transform="translate(-32 -458.646)"/>
            </g>
        </g>
    </g>
</svg>
